<svg xmlns="http://www.w3.org/2000/svg" xmlns:xlink="http://www.w3.org/1999/xlink" width="306" zoomAndPan="magnify" viewBox="0 0 229.5 39.749999" height="53" preserveAspectRatio="xMidYMid meet" version="1.2"><defs><clipPath id="457afcd12c"><path d="M 107.265625 14 L 122.910156 14 L 122.910156 28.5625 L 107.265625 28.5625 Z M 107.265625 14 "/></clipPath><clipPath id="169ec929a9"><path d="M 110 12.164062 L 120 12.164062 L 120 26 L 110 26 Z M 110 12.164062 "/></clipPath></defs><g id="e5c7264ac8"><g style="fill:#3f5386;fill-opacity:1;"><g transform="translate(57.891607, 28.393596)"><path style="stroke:none" d=""/></g></g><g style="fill:#ff5757;fill-opacity:1;"><g transform="translate(63.068622, 28.393596)"><path style="stroke:none" d="M 9 -16.03125 C 10 -16.03125 10.816406 -15.890625 11.453125 -15.609375 C 12.085938 -15.328125 12.660156 -14.988281 13.171875 -14.59375 C 13.347656 -14.457031 13.492188 -14.390625 13.609375 -14.390625 C 13.890625 -14.390625 14.078125 -14.832031 14.171875 -15.71875 L 14.671875 -15.71875 C 14.640625 -15.144531 14.617188 -14.445312 14.609375 -13.625 C 14.597656 -12.800781 14.59375 -11.707031 14.59375 -10.34375 L 14.078125 -10.34375 C 13.972656 -11.226562 13.8125 -12 13.59375 -12.65625 C 13.382812 -13.320312 12.988281 -13.890625 12.40625 -14.359375 C 12.050781 -14.703125 11.609375 -14.96875 11.078125 -15.15625 C 10.554688 -15.351562 10.03125 -15.453125 9.5 -15.453125 C 8.6875 -15.453125 7.988281 -15.238281 7.40625 -14.8125 C 6.832031 -14.394531 6.359375 -13.820312 5.984375 -13.09375 C 5.617188 -12.375 5.347656 -11.554688 5.171875 -10.640625 C 4.992188 -9.734375 4.90625 -8.789062 4.90625 -7.8125 C 4.90625 -5.144531 5.269531 -3.195312 6 -1.96875 C 6.738281 -0.75 7.796875 -0.140625 9.171875 -0.140625 C 9.523438 -0.140625 9.832031 -0.179688 10.09375 -0.265625 C 10.363281 -0.359375 10.582031 -0.460938 10.75 -0.578125 C 10.957031 -0.722656 11.097656 -0.878906 11.171875 -1.046875 C 11.242188 -1.222656 11.28125 -1.453125 11.28125 -1.734375 L 11.28125 -3.90625 C 11.28125 -4.582031 11.222656 -5.085938 11.109375 -5.421875 C 11.003906 -5.753906 10.785156 -5.976562 10.453125 -6.09375 C 10.128906 -6.21875 9.65625 -6.289062 9.03125 -6.3125 L 9.03125 -6.75 C 9.34375 -6.738281 9.71875 -6.726562 10.15625 -6.71875 C 10.59375 -6.707031 11.046875 -6.695312 11.515625 -6.6875 C 11.992188 -6.6875 12.429688 -6.6875 12.828125 -6.6875 C 13.453125 -6.6875 14.019531 -6.691406 14.53125 -6.703125 C 15.050781 -6.722656 15.476562 -6.738281 15.8125 -6.75 L 15.8125 -6.3125 C 15.53125 -6.289062 15.316406 -6.234375 15.171875 -6.140625 C 15.035156 -6.054688 14.941406 -5.878906 14.890625 -5.609375 C 14.835938 -5.347656 14.8125 -4.941406 14.8125 -4.390625 L 14.8125 0 L 14.359375 0 C 14.347656 -0.25 14.289062 -0.519531 14.1875 -0.8125 C 14.09375 -1.113281 13.9375 -1.265625 13.71875 -1.265625 C 13.613281 -1.265625 13.476562 -1.238281 13.3125 -1.1875 C 13.144531 -1.132812 12.878906 -1.003906 12.515625 -0.796875 C 11.972656 -0.484375 11.394531 -0.21875 10.78125 0 C 10.175781 0.207031 9.539062 0.3125 8.875 0.3125 C 7.164062 0.3125 5.71875 -0.00390625 4.53125 -0.640625 C 3.34375 -1.273438 2.445312 -2.1875 1.84375 -3.375 C 1.25 -4.570312 0.953125 -6.007812 0.953125 -7.6875 C 0.953125 -9.375 1.296875 -10.835938 1.984375 -12.078125 C 2.671875 -13.316406 3.617188 -14.285156 4.828125 -14.984375 C 6.035156 -15.679688 7.425781 -16.03125 9 -16.03125 Z M 9 -16.03125 "/></g></g><g style="fill:#ff5757;fill-opacity:1;"><g transform="translate(79.380214, 28.393596)"><path style="stroke:none" d="M 8.171875 -15.765625 L 13.5625 -1.859375 C 13.769531 -1.328125 14.003906 -0.960938 14.265625 -0.765625 C 14.523438 -0.566406 14.757812 -0.457031 14.96875 -0.4375 L 14.96875 0 C 14.519531 -0.03125 13.992188 -0.046875 13.390625 -0.046875 C 12.796875 -0.0546875 12.195312 -0.0625 11.59375 -0.0625 C 10.90625 -0.0625 10.257812 -0.0546875 9.65625 -0.046875 C 9.050781 -0.046875 8.570312 -0.03125 8.21875 0 L 8.21875 -0.4375 C 8.96875 -0.46875 9.441406 -0.597656 9.640625 -0.828125 C 9.847656 -1.054688 9.800781 -1.550781 9.5 -2.3125 L 5.734375 -12.640625 L 6.125 -13.203125 L 2.75 -4.421875 C 2.425781 -3.609375 2.226562 -2.941406 2.15625 -2.421875 C 2.09375 -1.898438 2.128906 -1.5 2.265625 -1.21875 C 2.410156 -0.9375 2.640625 -0.738281 2.953125 -0.625 C 3.273438 -0.519531 3.660156 -0.457031 4.109375 -0.4375 L 4.109375 0 C 3.617188 -0.03125 3.148438 -0.046875 2.703125 -0.046875 C 2.265625 -0.0546875 1.816406 -0.0625 1.359375 -0.0625 C 1.023438 -0.0625 0.710938 -0.0546875 0.421875 -0.046875 C 0.140625 -0.046875 -0.109375 -0.03125 -0.328125 0 L -0.328125 -0.4375 C -0.015625 -0.5 0.300781 -0.695312 0.625 -1.03125 C 0.945312 -1.375 1.265625 -1.957031 1.578125 -2.78125 L 6.640625 -15.765625 C 6.878906 -15.742188 7.132812 -15.734375 7.40625 -15.734375 C 7.675781 -15.734375 7.929688 -15.742188 8.171875 -15.765625 Z M 9.71875 -6.390625 L 9.71875 -5.953125 L 3.109375 -5.953125 L 3.328125 -6.390625 Z M 9.71875 -6.390625 "/></g></g><g style="fill:#ff5757;fill-opacity:1;"><g transform="translate(94.182704, 28.393596)"><path style="stroke:none" d="M 6.3125 -16.015625 C 7.175781 -16.015625 7.84375 -15.921875 8.3125 -15.734375 C 8.789062 -15.546875 9.203125 -15.347656 9.546875 -15.140625 C 9.722656 -15.035156 9.863281 -14.957031 9.96875 -14.90625 C 10.082031 -14.851562 10.191406 -14.828125 10.296875 -14.828125 C 10.453125 -14.828125 10.5625 -14.90625 10.625 -15.0625 C 10.6875 -15.226562 10.742188 -15.476562 10.796875 -15.8125 L 11.296875 -15.8125 C 11.285156 -15.53125 11.269531 -15.191406 11.25 -14.796875 C 11.226562 -14.398438 11.210938 -13.882812 11.203125 -13.25 C 11.191406 -12.613281 11.1875 -11.78125 11.1875 -10.75 L 10.6875 -10.75 C 10.625 -11.519531 10.441406 -12.265625 10.140625 -12.984375 C 9.847656 -13.710938 9.429688 -14.304688 8.890625 -14.765625 C 8.347656 -15.234375 7.6875 -15.46875 6.90625 -15.46875 C 6.195312 -15.46875 5.613281 -15.269531 5.15625 -14.875 C 4.695312 -14.476562 4.46875 -13.921875 4.46875 -13.203125 C 4.46875 -12.617188 4.613281 -12.113281 4.90625 -11.6875 C 5.195312 -11.269531 5.628906 -10.859375 6.203125 -10.453125 C 6.773438 -10.054688 7.46875 -9.578125 8.28125 -9.015625 C 8.988281 -8.554688 9.625 -8.097656 10.1875 -7.640625 C 10.75 -7.179688 11.203125 -6.660156 11.546875 -6.078125 C 11.890625 -5.503906 12.0625 -4.816406 12.0625 -4.015625 C 12.0625 -3.035156 11.804688 -2.226562 11.296875 -1.59375 C 10.785156 -0.957031 10.113281 -0.476562 9.28125 -0.15625 C 8.445312 0.15625 7.535156 0.3125 6.546875 0.3125 C 5.628906 0.3125 4.894531 0.222656 4.34375 0.046875 C 3.800781 -0.128906 3.34375 -0.316406 2.96875 -0.515625 C 2.644531 -0.722656 2.394531 -0.828125 2.21875 -0.828125 C 2.070312 -0.828125 1.960938 -0.742188 1.890625 -0.578125 C 1.828125 -0.410156 1.773438 -0.164062 1.734375 0.15625 L 1.21875 0.15625 C 1.25 -0.195312 1.265625 -0.609375 1.265625 -1.078125 C 1.273438 -1.554688 1.285156 -2.175781 1.296875 -2.9375 C 1.304688 -3.695312 1.3125 -4.664062 1.3125 -5.84375 L 1.828125 -5.84375 C 1.878906 -4.863281 2.039062 -3.945312 2.3125 -3.09375 C 2.59375 -2.25 3.015625 -1.566406 3.578125 -1.046875 C 4.148438 -0.523438 4.910156 -0.265625 5.859375 -0.265625 C 6.378906 -0.265625 6.84375 -0.359375 7.25 -0.546875 C 7.65625 -0.734375 7.984375 -1.007812 8.234375 -1.375 C 8.484375 -1.75 8.609375 -2.207031 8.609375 -2.75 C 8.609375 -3.375 8.460938 -3.914062 8.171875 -4.375 C 7.890625 -4.832031 7.5 -5.257812 7 -5.65625 C 6.507812 -6.0625 5.9375 -6.472656 5.28125 -6.890625 C 4.582031 -7.347656 3.929688 -7.804688 3.328125 -8.265625 C 2.722656 -8.722656 2.238281 -9.242188 1.875 -9.828125 C 1.507812 -10.421875 1.328125 -11.128906 1.328125 -11.953125 C 1.328125 -12.878906 1.5625 -13.640625 2.03125 -14.234375 C 2.5 -14.835938 3.113281 -15.285156 3.875 -15.578125 C 4.632812 -15.867188 5.445312 -16.015625 6.3125 -16.015625 Z M 6.3125 -16.015625 "/></g></g><g style="fill:#3f5386;fill-opacity:1;"><g transform="translate(107.154332, 28.393596)"><path style="stroke:none" d=""/></g></g><g style="fill:#3f5386;fill-opacity:1;"><g transform="translate(112.325219, 28.393596)"><path style="stroke:none" d=""/></g></g><g style="fill:#3f5386;fill-opacity:1;"><g transform="translate(117.496106, 28.393596)"><path style="stroke:none" d=""/></g></g><g style="fill:#3f5386;fill-opacity:1;"><g transform="translate(122.672902, 28.393596)"><path style="stroke:none" d="M 0.75 -15.71875 C 1.125 -15.707031 1.625 -15.691406 2.25 -15.671875 C 2.882812 -15.660156 3.507812 -15.65625 4.125 -15.65625 C 4.84375 -15.65625 5.53125 -15.660156 6.1875 -15.671875 C 6.851562 -15.691406 7.328125 -15.703125 7.609375 -15.703125 C 9.671875 -15.703125 11.210938 -15.289062 12.234375 -14.46875 C 13.253906 -13.65625 13.765625 -12.609375 13.765625 -11.328125 C 13.765625 -10.796875 13.660156 -10.234375 13.453125 -9.640625 C 13.242188 -9.054688 12.890625 -8.515625 12.390625 -8.015625 C 11.898438 -7.523438 11.222656 -7.125 10.359375 -6.8125 C 9.503906 -6.5 8.425781 -6.34375 7.125 -6.34375 L 4.859375 -6.34375 L 4.859375 -6.796875 L 6.90625 -6.796875 C 7.78125 -6.796875 8.441406 -6.992188 8.890625 -7.390625 C 9.335938 -7.796875 9.644531 -8.320312 9.8125 -8.96875 C 9.988281 -9.625 10.078125 -10.328125 10.078125 -11.078125 C 10.078125 -12.484375 9.867188 -13.535156 9.453125 -14.234375 C 9.046875 -14.929688 8.335938 -15.28125 7.328125 -15.28125 C 6.753906 -15.28125 6.378906 -15.148438 6.203125 -14.890625 C 6.035156 -14.640625 5.953125 -14.128906 5.953125 -13.359375 L 5.953125 -2.484375 C 5.953125 -1.910156 6.007812 -1.484375 6.125 -1.203125 C 6.25 -0.921875 6.476562 -0.734375 6.8125 -0.640625 C 7.15625 -0.554688 7.660156 -0.503906 8.328125 -0.484375 L 8.328125 0 C 7.867188 -0.0078125 7.273438 -0.0195312 6.546875 -0.03125 C 5.828125 -0.0507812 5.066406 -0.0625 4.265625 -0.0625 C 3.628906 -0.0625 3.003906 -0.0507812 2.390625 -0.03125 C 1.785156 -0.0195312 1.238281 -0.0078125 0.75 0 L 0.75 -0.4375 C 1.226562 -0.46875 1.582031 -0.523438 1.8125 -0.609375 C 2.050781 -0.703125 2.210938 -0.878906 2.296875 -1.140625 C 2.378906 -1.410156 2.421875 -1.816406 2.421875 -2.359375 L 2.421875 -13.359375 C 2.421875 -13.910156 2.378906 -14.316406 2.296875 -14.578125 C 2.210938 -14.835938 2.046875 -15.015625 1.796875 -15.109375 C 1.554688 -15.203125 1.207031 -15.257812 0.75 -15.28125 Z M 0.75 -15.71875 "/></g></g><g style="fill:#3f5386;fill-opacity:1;"><g transform="translate(136.898387, 28.393596)"><path style="stroke:none" d="M 8.171875 -15.765625 L 13.5625 -1.859375 C 13.769531 -1.328125 14.003906 -0.960938 14.265625 -0.765625 C 14.523438 -0.566406 14.757812 -0.457031 14.96875 -0.4375 L 14.96875 0 C 14.519531 -0.03125 13.992188 -0.046875 13.390625 -0.046875 C 12.796875 -0.0546875 12.195312 -0.0625 11.59375 -0.0625 C 10.90625 -0.0625 10.257812 -0.0546875 9.65625 -0.046875 C 9.050781 -0.046875 8.570312 -0.03125 8.21875 0 L 8.21875 -0.4375 C 8.96875 -0.46875 9.441406 -0.597656 9.640625 -0.828125 C 9.847656 -1.054688 9.800781 -1.550781 9.5 -2.3125 L 5.734375 -12.640625 L 6.125 -13.203125 L 2.75 -4.421875 C 2.425781 -3.609375 2.226562 -2.941406 2.15625 -2.421875 C 2.09375 -1.898438 2.128906 -1.5 2.265625 -1.21875 C 2.410156 -0.9375 2.640625 -0.738281 2.953125 -0.625 C 3.273438 -0.519531 3.660156 -0.457031 4.109375 -0.4375 L 4.109375 0 C 3.617188 -0.03125 3.148438 -0.046875 2.703125 -0.046875 C 2.265625 -0.0546875 1.816406 -0.0625 1.359375 -0.0625 C 1.023438 -0.0625 0.710938 -0.0546875 0.421875 -0.046875 C 0.140625 -0.046875 -0.109375 -0.03125 -0.328125 0 L -0.328125 -0.4375 C -0.015625 -0.5 0.300781 -0.695312 0.625 -1.03125 C 0.945312 -1.375 1.265625 -1.957031 1.578125 -2.78125 L 6.640625 -15.765625 C 6.878906 -15.742188 7.132812 -15.734375 7.40625 -15.734375 C 7.675781 -15.734375 7.929688 -15.742188 8.171875 -15.765625 Z M 9.71875 -6.390625 L 9.71875 -5.953125 L 3.109375 -5.953125 L 3.328125 -6.390625 Z M 9.71875 -6.390625 "/></g></g><g style="fill:#3f5386;fill-opacity:1;"><g transform="translate(151.700877, 28.393596)"><path style="stroke:none" d="M 13.703125 -15.734375 L 13.703125 -15.296875 C 13.367188 -15.160156 13.03125 -14.894531 12.6875 -14.5 C 12.351562 -14.113281 11.976562 -13.519531 11.5625 -12.71875 L 7.375 -4.421875 L 6.328125 -4.421875 L 1.125 -14.03125 C 0.863281 -14.53125 0.625 -14.863281 0.40625 -15.03125 C 0.195312 -15.195312 0.0078125 -15.28125 -0.15625 -15.28125 L -0.15625 -15.734375 C 0.238281 -15.691406 0.644531 -15.660156 1.0625 -15.640625 C 1.488281 -15.628906 1.957031 -15.625 2.46875 -15.625 C 3.113281 -15.625 3.8125 -15.632812 4.5625 -15.65625 C 5.320312 -15.6875 6.015625 -15.710938 6.640625 -15.734375 L 6.640625 -15.28125 C 6.265625 -15.28125 5.929688 -15.25 5.640625 -15.1875 C 5.347656 -15.125 5.140625 -15.015625 5.015625 -14.859375 C 4.898438 -14.703125 4.929688 -14.457031 5.109375 -14.125 L 8.609375 -7.375 L 7.921875 -6.484375 L 10.21875 -11.078125 C 10.757812 -12.140625 11.046875 -12.972656 11.078125 -13.578125 C 11.117188 -14.191406 10.972656 -14.628906 10.640625 -14.890625 C 10.304688 -15.148438 9.835938 -15.285156 9.234375 -15.296875 L 9.234375 -15.734375 C 9.734375 -15.722656 10.207031 -15.707031 10.65625 -15.6875 C 11.101562 -15.675781 11.554688 -15.671875 12.015625 -15.671875 C 12.335938 -15.671875 12.640625 -15.675781 12.921875 -15.6875 C 13.210938 -15.707031 13.472656 -15.722656 13.703125 -15.734375 Z M 8.953125 -7.921875 L 8.953125 -2.359375 C 8.953125 -1.816406 8.988281 -1.410156 9.0625 -1.140625 C 9.144531 -0.878906 9.304688 -0.703125 9.546875 -0.609375 C 9.785156 -0.523438 10.140625 -0.46875 10.609375 -0.4375 L 10.609375 0 C 10.210938 -0.03125 9.695312 -0.046875 9.0625 -0.046875 C 8.4375 -0.0546875 7.8125 -0.0625 7.1875 -0.0625 C 6.5 -0.0625 5.84375 -0.0546875 5.21875 -0.046875 C 4.59375 -0.046875 4.101562 -0.03125 3.75 0 L 3.75 -0.4375 C 4.226562 -0.46875 4.582031 -0.523438 4.8125 -0.609375 C 5.050781 -0.703125 5.210938 -0.878906 5.296875 -1.140625 C 5.378906 -1.410156 5.421875 -1.816406 5.421875 -2.359375 L 5.421875 -6.90625 L 7.34375 -5.53125 Z M 8.953125 -7.921875 "/></g></g><g style="fill:#000000;fill-opacity:1;"><g transform="translate(165.536088, 28.393596)"><path style="stroke:none" d=""/></g></g><g clip-rule="nonzero" clip-path="url(#457afcd12c)"><path style=" stroke:none;fill-rule:evenodd;fill:#3f5386;fill-opacity:1;" d="M 117.898438 15.007812 C 118.121094 15.121094 118.335938 15.246094 118.542969 15.382812 L 119.71875 14.78125 L 120.375 15.441406 L 121.035156 16.097656 L 120.433594 17.273438 C 120.878906 17.953125 121.203125 18.714844 121.375 19.535156 L 122.628906 19.941406 L 122.628906 21.804688 L 121.375 22.210938 C 121.203125 23.03125 120.882812 23.796875 120.4375 24.476562 L 121.035156 25.648438 L 120.375 26.308594 L 119.71875 26.96875 L 118.542969 26.367188 C 117.867188 26.8125 117.101562 27.136719 116.28125 27.304688 L 115.875 28.558594 L 114.011719 28.558594 L 113.605469 27.304688 C 112.785156 27.136719 112.019531 26.8125 111.34375 26.367188 L 110.167969 26.96875 L 109.507812 26.308594 L 108.851562 25.648438 L 109.449219 24.476562 C 109.003906 23.796875 108.683594 23.035156 108.511719 22.210938 L 107.257812 21.804688 L 107.257812 19.941406 L 108.511719 19.535156 C 108.683594 18.714844 109.003906 17.953125 109.449219 17.273438 L 108.851562 16.097656 L 110.167969 14.78125 L 111.34375 15.382812 C 111.550781 15.246094 111.765625 15.121094 111.988281 15.007812 C 111.792969 15.253906 111.601562 15.5 111.414062 15.746094 C 110.226562 17.324219 109.433594 18.832031 109.433594 20.875 C 109.433594 23.917969 111.898438 26.382812 114.941406 26.382812 C 117.984375 26.382812 120.453125 23.917969 120.453125 20.875 C 120.453125 18.832031 119.660156 17.324219 118.46875 15.746094 C 118.285156 15.5 118.089844 15.253906 117.898438 15.007812 "/></g><g clip-rule="nonzero" clip-path="url(#169ec929a9)"><path style=" stroke:none;fill-rule:evenodd;fill:#00bf63;fill-opacity:1;" d="M 117.289062 24.871094 C 114.964844 24.914062 113.871094 23.941406 113.238281 23.089844 C 111.992188 21.410156 113.148438 19.023438 114.492188 17.71875 C 114.96875 17.257812 115.242188 16.71875 115.375 16.160156 C 115.839844 14.265625 114.726562 12.164062 114.726562 12.164062 C 113.65625 15.394531 110.308594 16.988281 110.308594 20.875 C 110.308594 23.433594 112.382812 25.507812 114.941406 25.507812 C 115.796875 25.507812 116.601562 25.277344 117.289062 24.871094 M 117.738281 20.875 C 117.738281 23.476562 115.125 24.027344 113.222656 22.15625 C 113.324219 23.90625 117.929688 25.976562 119.328125 22.441406 C 120.621094 19.179688 117.570312 16.351562 115.976562 13.847656 C 115.917969 14.550781 115.871094 15.964844 116.230469 17.257812 C 116.96875 18.230469 117.554688 19.164062 117.707031 20.453125 C 117.722656 20.597656 117.738281 20.730469 117.738281 20.875 Z M 117.738281 20.875 "/></g><path style=" stroke:none;fill-rule:evenodd;fill:#00bf63;fill-opacity:1;" d="M 116.75 19.421875 C 116.75 19.421875 117.378906 20.957031 116.421875 22.660156 C 116.933594 22.234375 117.261719 21.59375 117.261719 20.875 C 117.261719 20.324219 117.070312 19.820312 116.75 19.421875 "/><g style="fill:#3f5386;fill-opacity:1;"><g transform="translate(164.683474, 12.125257)"><path style="stroke:none" d="M 0.21875 -1.40625 C 0.21875 -1.570312 0.25 -1.742188 0.3125 -1.921875 C 0.382812 -2.109375 0.488281 -2.28125 0.625 -2.4375 C 0.757812 -2.59375 0.925781 -2.71875 1.125 -2.8125 C 1.320312 -2.90625 1.546875 -2.953125 1.796875 -2.953125 C 2.054688 -2.953125 2.285156 -2.90625 2.484375 -2.8125 C 2.679688 -2.71875 2.847656 -2.59375 2.984375 -2.4375 C 3.117188 -2.28125 3.21875 -2.109375 3.28125 -1.921875 C 3.351562 -1.742188 3.390625 -1.570312 3.390625 -1.40625 C 3.390625 -1.113281 3.328125 -0.851562 3.203125 -0.625 C 3.085938 -0.394531 2.910156 -0.210938 2.671875 -0.078125 C 2.429688 0.0546875 2.140625 0.125 1.796875 0.125 C 1.566406 0.125 1.351562 0.0820312 1.15625 0 C 0.96875 -0.0820312 0.800781 -0.195312 0.65625 -0.34375 C 0.519531 -0.488281 0.410156 -0.648438 0.328125 -0.828125 C 0.253906 -1.015625 0.21875 -1.207031 0.21875 -1.40625 Z M 0.609375 -1.40625 C 0.609375 -1.257812 0.632812 -1.117188 0.6875 -0.984375 C 0.75 -0.847656 0.832031 -0.722656 0.9375 -0.609375 C 1.050781 -0.503906 1.175781 -0.421875 1.3125 -0.359375 C 1.457031 -0.296875 1.617188 -0.265625 1.796875 -0.265625 C 2.054688 -0.265625 2.273438 -0.3125 2.453125 -0.40625 C 2.628906 -0.507812 2.757812 -0.648438 2.84375 -0.828125 C 2.9375 -1.003906 2.984375 -1.195312 2.984375 -1.40625 C 2.984375 -1.53125 2.957031 -1.660156 2.90625 -1.796875 C 2.851562 -1.929688 2.773438 -2.054688 2.671875 -2.171875 C 2.578125 -2.296875 2.453125 -2.390625 2.296875 -2.453125 C 2.148438 -2.523438 1.984375 -2.5625 1.796875 -2.5625 C 1.609375 -2.5625 1.4375 -2.523438 1.28125 -2.453125 C 1.132812 -2.390625 1.007812 -2.296875 0.90625 -2.171875 C 0.8125 -2.054688 0.738281 -1.929688 0.6875 -1.796875 C 0.632812 -1.660156 0.609375 -1.53125 0.609375 -1.40625 Z M 1.078125 -2.171875 L 1.828125 -2.171875 C 2.003906 -2.171875 2.140625 -2.148438 2.234375 -2.109375 C 2.328125 -2.066406 2.390625 -2.007812 2.421875 -1.9375 C 2.453125 -1.863281 2.46875 -1.785156 2.46875 -1.703125 C 2.46875 -1.609375 2.429688 -1.53125 2.359375 -1.46875 C 2.296875 -1.414062 2.21875 -1.382812 2.125 -1.375 C 2.207031 -1.351562 2.28125 -1.3125 2.34375 -1.25 C 2.40625 -1.195312 2.4375 -1.128906 2.4375 -1.046875 C 2.4375 -0.941406 2.453125 -0.890625 2.484375 -0.890625 C 2.515625 -0.890625 2.53125 -0.910156 2.53125 -0.953125 L 2.53125 -1.03125 L 2.703125 -1.03125 L 2.703125 -0.90625 C 2.703125 -0.8125 2.675781 -0.722656 2.625 -0.640625 C 2.570312 -0.566406 2.484375 -0.53125 2.359375 -0.53125 C 2.210938 -0.53125 2.101562 -0.566406 2.03125 -0.640625 C 1.96875 -0.722656 1.9375 -0.832031 1.9375 -0.96875 C 1.9375 -1.070312 1.914062 -1.140625 1.875 -1.171875 C 1.84375 -1.210938 1.773438 -1.234375 1.671875 -1.234375 L 1.671875 -0.875 L 1.828125 -0.875 L 1.828125 -0.578125 L 1.078125 -0.578125 L 1.078125 -0.875 L 1.21875 -0.875 L 1.21875 -1.875 L 1.078125 -1.875 Z M 1.671875 -1.875 L 1.671875 -1.484375 L 1.78125 -1.484375 C 1.9375 -1.484375 2.015625 -1.546875 2.015625 -1.671875 C 2.015625 -1.804688 1.941406 -1.875 1.796875 -1.875 Z M 1.671875 -1.875 "/></g></g></g></svg>