<svg xmlns="http://www.w3.org/2000/svg" xmlns:xlink="http://www.w3.org/1999/xlink" width="279" zoomAndPan="magnify" viewBox="0 0 209.25 36.750001" height="49" preserveAspectRatio="xMidYMid meet" version="1.2"><defs><clipPath id="66f2f04a81"><path d="M 94.804688 9 L 109.695312 9 L 109.695312 23 L 94.804688 23 Z M 94.804688 9 "/></clipPath><clipPath id="de17cf451d"><path d="M 97 7.035156 L 107 7.035156 L 107 20 L 97 20 Z M 97 7.035156 "/></clipPath><clipPath id="5ccef8c46a"><path d="M 67 10 L 72 10 L 72 14 L 67 14 Z M 67 10 "/></clipPath><clipPath id="69652c0eaf"><path d="M 69.503906 7.738281 L 72.683594 9.679688 L 69.578125 14.765625 L 66.398438 12.824219 Z M 69.503906 7.738281 "/></clipPath><clipPath id="0b1c9b5b78"><path d="M 69.503906 7.738281 L 72.683594 9.679688 L 69.578125 14.765625 L 66.398438 12.824219 Z M 69.503906 7.738281 "/></clipPath><clipPath id="ca47caeca2"><path d="M 67 8 L 72 8 L 72 13 L 67 13 Z M 67 8 "/></clipPath><clipPath id="3f2424534a"><path d="M 69.503906 7.738281 L 72.683594 9.679688 L 69.578125 14.765625 L 66.398438 12.824219 Z M 69.503906 7.738281 "/></clipPath><clipPath id="8d85123085"><path d="M 69.503906 7.738281 L 72.683594 9.679688 L 69.578125 14.765625 L 66.398438 12.824219 Z M 69.503906 7.738281 "/></clipPath><clipPath id="bf67bff338"><path d="M 65 14 L 70 14 L 70 19 L 65 19 Z M 65 14 "/></clipPath><clipPath id="7f9436f741"><path d="M 67.199219 11.832031 L 70.625 13.289062 L 68 19.457031 L 64.570312 18 Z M 67.199219 11.832031 "/></clipPath><clipPath id="3ed30bed59"><path d="M 67.199219 11.832031 L 70.625 13.289062 L 68 19.457031 L 64.570312 18 Z M 67.199219 11.832031 "/></clipPath><clipPath id="22872ac7d0"><path d="M 65 12 L 70 12 L 70 17 L 65 17 Z M 65 12 "/></clipPath><clipPath id="1561af6982"><path d="M 67.199219 11.832031 L 70.625 13.289062 L 68 19.457031 L 64.570312 18 Z M 67.199219 11.832031 "/></clipPath><clipPath id="ddbbf1f87f"><path d="M 67.199219 11.832031 L 70.625 13.289062 L 68 19.457031 L 64.570312 18 Z M 67.199219 11.832031 "/></clipPath><clipPath id="5a7a6d8f09"><path d="M 65 18 L 69 18 L 69 23 L 65 23 Z M 65 18 "/></clipPath><clipPath id="dc9f7baee6"><path d="M 66.1875 16.363281 L 69.628906 17.785156 L 67.347656 23.292969 L 63.90625 21.867188 Z M 66.1875 16.363281 "/></clipPath><clipPath id="a15ef06d8c"><path d="M 66.1875 16.363281 L 69.628906 17.785156 L 67.347656 23.292969 L 63.90625 21.867188 Z M 66.1875 16.363281 "/></clipPath><clipPath id="cd73a3e3fd"><path d="M 64 17 L 68 17 L 68 21 L 64 21 Z M 64 17 "/></clipPath><clipPath id="b3a4f52a00"><path d="M 66.1875 16.363281 L 69.628906 17.785156 L 67.347656 23.292969 L 63.90625 21.867188 Z M 66.1875 16.363281 "/></clipPath><clipPath id="69ea81d753"><path d="M 66.1875 16.363281 L 69.628906 17.785156 L 67.347656 23.292969 L 63.90625 21.867188 Z M 66.1875 16.363281 "/></clipPath><clipPath id="83a6077549"><path d="M 73 17 L 76 17 L 76 22 L 73 22 Z M 73 17 "/></clipPath><clipPath id="c1f1f84ed9"><path d="M 76.949219 22.625 L 73.285156 23.300781 L 72.203125 17.441406 L 75.867188 16.765625 Z M 76.949219 22.625 "/></clipPath><clipPath id="c8f822da20"><path d="M 76.949219 22.625 L 73.285156 23.300781 L 72.203125 17.441406 L 75.867188 16.765625 Z M 76.949219 22.625 "/></clipPath><clipPath id="310e6e4197"><path d="M 74 18 L 77 18 L 77 23 L 74 23 Z M 74 18 "/></clipPath><clipPath id="051793f446"><path d="M 76.949219 22.625 L 73.285156 23.300781 L 72.203125 17.441406 L 75.867188 16.765625 Z M 76.949219 22.625 "/></clipPath><clipPath id="55d9f02916"><path d="M 76.949219 22.625 L 73.285156 23.300781 L 72.203125 17.441406 L 75.867188 16.765625 Z M 76.949219 22.625 "/></clipPath><clipPath id="8ca969a02a"><path d="M 72 12 L 75 12 L 75 18 L 72 18 Z M 72 12 "/></clipPath><clipPath id="617c5a13db"><path d="M 76.75 18.03125 L 73.222656 19.230469 L 71.0625 12.882812 L 74.589844 11.683594 Z M 76.75 18.03125 "/></clipPath><clipPath id="63654b277b"><path d="M 76.75 18.03125 L 73.222656 19.230469 L 71.0625 12.882812 L 74.589844 11.683594 Z M 76.75 18.03125 "/></clipPath><clipPath id="ef3e3b7619"><path d="M 73 13 L 76 13 L 76 19 L 73 19 Z M 73 13 "/></clipPath><clipPath id="525824923c"><path d="M 76.75 18.03125 L 73.222656 19.230469 L 71.0625 12.882812 L 74.589844 11.683594 Z M 76.75 18.03125 "/></clipPath><clipPath id="c9a8feab24"><path d="M 76.75 18.03125 L 73.222656 19.230469 L 71.0625 12.882812 L 74.589844 11.683594 Z M 76.75 18.03125 "/></clipPath><clipPath id="e12cbd3eb4"><path d="M 70 8 L 73 8 L 73 14 L 70 14 Z M 70 8 "/></clipPath><clipPath id="51983a7480"><path d="M 74.480469 13.980469 L 70.96875 15.214844 L 68.992188 9.59375 L 72.503906 8.359375 Z M 74.480469 13.980469 "/></clipPath><clipPath id="fb7ab48b6c"><path d="M 74.480469 13.980469 L 70.96875 15.214844 L 68.992188 9.59375 L 72.503906 8.359375 Z M 74.480469 13.980469 "/></clipPath><clipPath id="a72f1c19f5"><path d="M 71 9 L 74 9 L 74 15 L 71 15 Z M 71 9 "/></clipPath><clipPath id="9ab004850c"><path d="M 74.480469 13.980469 L 70.96875 15.214844 L 68.992188 9.59375 L 72.503906 8.359375 Z M 74.480469 13.980469 "/></clipPath><clipPath id="81a83d26db"><path d="M 74.480469 13.980469 L 70.96875 15.214844 L 68.992188 9.59375 L 72.503906 8.359375 Z M 74.480469 13.980469 "/></clipPath><clipPath id="996a947ed8"><path d="M 68 16 L 73 16 L 73 18 L 68 18 Z M 68 16 "/></clipPath><clipPath id="f8734df702"><path d="M 73.113281 14.234375 L 74.117188 17.039062 L 68.503906 19.042969 L 67.5 16.238281 Z M 73.113281 14.234375 "/></clipPath><clipPath id="9a0b84480d"><path d="M 73.113281 14.234375 L 74.117188 17.039062 L 68.503906 19.042969 L 67.5 16.238281 Z M 73.113281 14.234375 "/></clipPath><clipPath id="72f9218269"><path d="M 69 15 L 74 15 L 74 17 L 69 17 Z M 69 15 "/></clipPath><clipPath id="7af6ba089d"><path d="M 73.113281 14.234375 L 74.117188 17.039062 L 68.503906 19.042969 L 67.5 16.238281 Z M 73.113281 14.234375 "/></clipPath><clipPath id="50008a5b68"><path d="M 73.113281 14.234375 L 74.117188 17.039062 L 68.503906 19.042969 L 67.5 16.238281 Z M 73.113281 14.234375 "/></clipPath></defs><g id="87bfbae9b2"><g style="fill:#3f5386;fill-opacity:1;"><g transform="translate(47.227469, 22.635221)"><path style="stroke:none" d="M 10.5625 0 L 9.9375 -1.28125 C 9.71875 -0.894531 9.3125 -0.550781 8.71875 -0.25 C 8.132812 0.0390625 7.453125 0.1875 6.671875 0.1875 C 5.492188 0.1875 4.421875 -0.101562 3.453125 -0.6875 C 2.484375 -1.269531 1.710938 -2.09375 1.140625 -3.15625 C 0.578125 -4.226562 0.296875 -5.492188 0.296875 -6.953125 C 0.296875 -8.054688 0.46875 -9.0625 0.8125 -9.96875 C 1.164062 -10.882812 1.640625 -11.671875 2.234375 -12.328125 C 2.828125 -12.992188 3.492188 -13.503906 4.234375 -13.859375 C 4.972656 -14.222656 5.738281 -14.40625 6.53125 -14.40625 C 7.257812 -14.40625 7.863281 -14.332031 8.34375 -14.1875 C 8.820312 -14.050781 9.203125 -13.878906 9.484375 -13.671875 C 9.765625 -13.472656 9.976562 -13.28125 10.125 -13.09375 C 10.28125 -12.914062 10.398438 -12.785156 10.484375 -12.703125 L 10.90625 -14.171875 L 13.921875 -14.171875 L 13.921875 -8.1875 L 10.296875 -8.1875 C 10.265625 -9.007812 10.019531 -9.644531 9.5625 -10.09375 C 9.101562 -10.539062 8.578125 -10.765625 7.984375 -10.765625 C 7.441406 -10.765625 6.960938 -10.585938 6.546875 -10.234375 C 6.128906 -9.878906 5.800781 -9.410156 5.5625 -8.828125 C 5.320312 -8.253906 5.203125 -7.628906 5.203125 -6.953125 C 5.203125 -6.265625 5.3125 -5.640625 5.53125 -5.078125 C 5.75 -4.515625 6.066406 -4.0625 6.484375 -3.71875 C 6.898438 -3.382812 7.398438 -3.21875 7.984375 -3.21875 C 8.566406 -3.21875 9 -3.316406 9.28125 -3.515625 C 9.5625 -3.722656 9.78125 -3.957031 9.9375 -4.21875 L 9.9375 -5.0625 L 8.6875 -5.0625 L 8.6875 -7.234375 L 15.421875 -7.234375 L 15.421875 -5.0625 L 14.609375 -5.0625 L 14.609375 0 Z M 10.5625 0 "/></g></g><g style="fill:#4c4c4c;fill-opacity:1;"><g transform="translate(62.952527, 22.635221)"><path style="stroke:none" d=""/></g></g><g style="fill:#4c4c4c;fill-opacity:1;"><g transform="translate(68.015751, 22.635221)"><path style="stroke:none" d=""/></g></g><g style="fill:#4c4c4c;fill-opacity:1;"><g transform="translate(73.078975, 22.635221)"><path style="stroke:none" d=""/></g></g><g style="fill:#3f5386;fill-opacity:1;"><g transform="translate(78.153804, 22.635221)"><path style="stroke:none" d="M 0.5 0 L 0.5 -5.109375 L 4.28125 -5.109375 C 4.28125 -4.691406 4.367188 -4.347656 4.546875 -4.078125 C 4.734375 -3.816406 4.960938 -3.613281 5.234375 -3.46875 C 5.515625 -3.332031 5.796875 -3.234375 6.078125 -3.171875 C 6.359375 -3.117188 6.609375 -3.085938 6.828125 -3.078125 C 7.066406 -3.078125 7.316406 -3.097656 7.578125 -3.140625 C 7.847656 -3.191406 8.078125 -3.289062 8.265625 -3.4375 C 8.453125 -3.59375 8.546875 -3.8125 8.546875 -4.09375 C 8.546875 -4.320312 8.40625 -4.507812 8.125 -4.65625 C 7.84375 -4.8125 7.472656 -4.957031 7.015625 -5.09375 C 6.554688 -5.226562 6.046875 -5.367188 5.484375 -5.515625 C 4.929688 -5.671875 4.378906 -5.863281 3.828125 -6.09375 C 3.273438 -6.320312 2.769531 -6.613281 2.3125 -6.96875 C 1.851562 -7.332031 1.476562 -7.769531 1.1875 -8.28125 C 0.90625 -8.800781 0.765625 -9.429688 0.765625 -10.171875 C 0.765625 -10.929688 0.921875 -11.582031 1.234375 -12.125 C 1.546875 -12.675781 1.945312 -13.125 2.4375 -13.46875 C 2.9375 -13.820312 3.460938 -14.085938 4.015625 -14.265625 C 4.566406 -14.441406 5.09375 -14.53125 5.59375 -14.53125 C 6.445312 -14.53125 7.265625 -14.375 8.046875 -14.0625 C 8.828125 -13.75 9.421875 -13.21875 9.828125 -12.46875 L 10.03125 -14.171875 L 13.515625 -14.171875 L 13.515625 -9.078125 L 9.84375 -9.078125 C 9.84375 -9.835938 9.585938 -10.421875 9.078125 -10.828125 C 8.578125 -11.234375 7.96875 -11.4375 7.25 -11.4375 C 6.957031 -11.4375 6.648438 -11.34375 6.328125 -11.15625 C 6.015625 -10.96875 5.859375 -10.703125 5.859375 -10.359375 C 5.859375 -10.054688 6.003906 -9.800781 6.296875 -9.59375 C 6.585938 -9.382812 6.972656 -9.191406 7.453125 -9.015625 C 7.929688 -8.835938 8.453125 -8.65625 9.015625 -8.46875 C 9.585938 -8.289062 10.15625 -8.082031 10.71875 -7.84375 C 11.289062 -7.601562 11.816406 -7.3125 12.296875 -6.96875 C 12.773438 -6.632812 13.15625 -6.222656 13.4375 -5.734375 C 13.726562 -5.242188 13.875 -4.664062 13.875 -4 C 13.875 -3.207031 13.710938 -2.535156 13.390625 -1.984375 C 13.066406 -1.429688 12.640625 -0.988281 12.109375 -0.65625 C 11.578125 -0.320312 10.992188 -0.0820312 10.359375 0.0625 C 9.734375 0.21875 9.117188 0.296875 8.515625 0.296875 C 7.484375 0.296875 6.613281 0.101562 5.90625 -0.28125 C 5.207031 -0.675781 4.664062 -1.101562 4.28125 -1.5625 L 4.046875 0 Z M 0.5 0 "/></g></g><g style="fill:#3f5386;fill-opacity:1;"><g transform="translate(92.540311, 22.635221)"><path style="stroke:none" d=""/></g></g><g style="fill:#3f5386;fill-opacity:1;"><g transform="translate(97.603535, 22.635221)"><path style="stroke:none" d=""/></g></g><g style="fill:#3f5386;fill-opacity:1;"><g transform="translate(102.666759, 22.635221)"><path style="stroke:none" d=""/></g></g><g style="fill:#3f5386;fill-opacity:1;"><g transform="translate(107.729983, 22.635221)"><path style="stroke:none" d=""/></g></g><g style="fill:#3f5386;fill-opacity:1;"><g transform="translate(112.804801, 22.635221)"><path style="stroke:none" d="M 0.5 -14.171875 L 7.078125 -14.171875 C 8.242188 -14.171875 9.195312 -14.054688 9.9375 -13.828125 C 10.675781 -13.597656 11.238281 -13.28125 11.625 -12.875 C 12.019531 -12.46875 12.289062 -12.003906 12.4375 -11.484375 C 12.59375 -10.960938 12.671875 -10.410156 12.671875 -9.828125 C 12.671875 -8.929688 12.425781 -8.1875 11.9375 -7.59375 C 11.445312 -7 10.800781 -6.550781 10 -6.25 C 9.195312 -5.957031 8.3125 -5.8125 7.34375 -5.8125 L 5.796875 -5.8125 L 5.796875 -2.671875 L 7.03125 -2.671875 L 7.03125 0 L 0.5 0 L 0.5 -2.671875 L 1.640625 -2.671875 L 1.640625 -11.515625 L 0.5 -11.515625 Z M 5.796875 -11.53125 L 5.796875 -8 L 6.703125 -8 C 7.296875 -8 7.773438 -8.144531 8.140625 -8.4375 C 8.503906 -8.726562 8.6875 -9.144531 8.6875 -9.6875 C 8.6875 -10.28125 8.519531 -10.734375 8.1875 -11.046875 C 7.863281 -11.367188 7.40625 -11.53125 6.8125 -11.53125 Z M 5.796875 -11.53125 "/></g></g><g style="fill:#3f5386;fill-opacity:1;"><g transform="translate(125.766666, 22.635221)"><path style="stroke:none" d="M 16.375 0 L 8.25 0 L 8.25 -2.65625 L 10.171875 -2.65625 L 9.75 -4.03125 L 5.59375 -4.03125 L 5.171875 -2.65625 L 6.75 -2.65625 L 6.75 0 L 0.296875 0 L 0.296875 -2.65625 L 1.6875 -2.65625 L 4.421875 -11.546875 L 3.59375 -11.546875 L 3.59375 -14.171875 L 11.375 -14.171875 L 14.953125 -2.65625 L 16.375 -2.65625 Z M 6.34375 -6.46875 L 9 -6.46875 L 7.65625 -10.84375 Z M 6.34375 -6.46875 "/></g></g><g style="fill:#3f5386;fill-opacity:1;"><g transform="translate(142.434813, 22.635221)"><path style="stroke:none" d="M 7.484375 -7.78125 L 7.5625 -7.78125 C 7.601562 -7.988281 7.707031 -8.269531 7.875 -8.625 C 8.050781 -8.976562 8.195312 -9.28125 8.3125 -9.53125 L 9.421875 -11.578125 L 8.3125 -11.578125 L 8.3125 -14.171875 L 13.765625 -14.171875 L 13.765625 -11.578125 L 12.671875 -11.578125 L 8.921875 -4.984375 L 8.921875 -2.640625 L 10.046875 -2.640625 L 10.046875 0 L 3.5625 0 L 3.5625 -2.640625 L 4.71875 -2.640625 L 4.71875 -5.03125 L 0.796875 -11.578125 L -0.203125 -11.578125 L -0.203125 -14.171875 L 6.734375 -14.171875 L 6.734375 -11.578125 L 5.671875 -11.578125 L 6.84375 -9.421875 C 6.882812 -9.296875 6.945312 -9.125 7.03125 -8.90625 C 7.125 -8.695312 7.210938 -8.488281 7.296875 -8.28125 C 7.390625 -8.070312 7.453125 -7.90625 7.484375 -7.78125 Z M 7.484375 -7.78125 "/></g></g><g style="fill:#000000;fill-opacity:1;"><g transform="translate(155.987602, 22.635221)"><path style="stroke:none" d=""/></g></g><g clip-rule="nonzero" clip-path="url(#66f2f04a81)"><path style=" stroke:none;fill-rule:evenodd;fill:#3f5386;fill-opacity:1;" d="M 105.109375 9.792969 C 105.324219 9.902344 105.535156 10.023438 105.734375 10.15625 L 106.875 9.574219 L 107.511719 10.210938 L 108.148438 10.851562 L 107.570312 11.988281 C 108 12.644531 108.3125 13.386719 108.476562 14.183594 L 109.691406 14.578125 L 109.691406 16.382812 L 108.476562 16.777344 C 108.3125 17.570312 108 18.3125 107.570312 18.96875 L 108.148438 20.109375 L 107.511719 20.746094 L 106.875 21.386719 L 105.734375 20.804688 C 105.078125 21.234375 104.335938 21.546875 103.542969 21.710938 L 103.148438 22.929688 L 101.339844 22.929688 L 100.949219 21.710938 C 100.152344 21.546875 99.410156 21.234375 98.753906 20.804688 L 97.617188 21.386719 L 96.339844 20.109375 L 96.921875 18.96875 C 96.488281 18.3125 96.175781 17.570312 96.011719 16.777344 L 94.796875 16.382812 L 94.796875 14.578125 L 96.011719 14.183594 C 96.175781 13.386719 96.488281 12.644531 96.921875 11.988281 L 96.339844 10.851562 L 96.976562 10.210938 L 97.617188 9.574219 L 98.753906 10.15625 C 98.957031 10.023438 99.164062 9.902344 99.378906 9.792969 C 99.191406 10.03125 99.007812 10.269531 98.828125 10.507812 C 97.675781 12.039062 96.90625 13.5 96.90625 15.480469 C 96.90625 18.429688 99.296875 20.820312 102.246094 20.820312 C 105.195312 20.820312 107.585938 18.429688 107.585938 15.480469 C 107.585938 13.5 106.816406 12.039062 105.664062 10.507812 C 105.484375 10.269531 105.296875 10.03125 105.109375 9.792969 "/></g><g clip-rule="nonzero" clip-path="url(#de17cf451d)"><path style=" stroke:none;fill-rule:evenodd;fill:#00bf63;fill-opacity:1;" d="M 104.515625 19.351562 C 102.265625 19.394531 101.207031 18.453125 100.59375 17.625 C 99.382812 15.996094 100.503906 13.6875 101.808594 12.421875 C 102.269531 11.972656 102.535156 11.449219 102.664062 10.910156 C 103.113281 9.074219 102.035156 7.035156 102.035156 7.035156 C 100.996094 10.167969 97.753906 11.714844 97.753906 15.480469 C 97.753906 17.960938 99.765625 19.96875 102.246094 19.96875 C 103.074219 19.96875 103.851562 19.746094 104.515625 19.351562 M 104.953125 15.480469 C 104.953125 18 102.421875 18.535156 100.578125 16.722656 C 100.675781 18.417969 105.136719 20.425781 106.496094 17 C 107.75 13.835938 104.789062 11.09375 103.246094 8.667969 C 103.191406 9.347656 103.144531 10.722656 103.492188 11.976562 C 104.207031 12.914062 104.777344 13.820312 104.921875 15.070312 C 104.941406 15.210938 104.953125 15.339844 104.953125 15.480469 Z M 104.953125 15.480469 "/></g><path style=" stroke:none;fill-rule:evenodd;fill:#00bf63;fill-opacity:1;" d="M 103.996094 14.070312 C 103.996094 14.070312 104.605469 15.5625 103.679688 17.210938 C 104.175781 16.796875 104.492188 16.175781 104.492188 15.480469 C 104.492188 14.945312 104.308594 14.457031 103.996094 14.070312 "/><g style="fill:#3f5386;fill-opacity:1;"><g transform="translate(153.778824, 8.287243)"><path style="stroke:none" d="M 0.265625 -1.703125 C 0.265625 -1.910156 0.304688 -2.125 0.390625 -2.34375 C 0.472656 -2.570312 0.59375 -2.78125 0.75 -2.96875 C 0.914062 -3.15625 1.117188 -3.304688 1.359375 -3.421875 C 1.597656 -3.535156 1.875 -3.59375 2.1875 -3.59375 C 2.5 -3.59375 2.773438 -3.535156 3.015625 -3.421875 C 3.253906 -3.304688 3.457031 -3.15625 3.625 -2.96875 C 3.789062 -2.78125 3.914062 -2.570312 4 -2.34375 C 4.082031 -2.125 4.125 -1.910156 4.125 -1.703125 C 4.125 -1.359375 4.050781 -1.046875 3.90625 -0.765625 C 3.757812 -0.484375 3.539062 -0.257812 3.25 -0.09375 C 2.957031 0.0703125 2.601562 0.15625 2.1875 0.15625 C 1.90625 0.15625 1.644531 0.101562 1.40625 0 C 1.175781 -0.101562 0.972656 -0.242188 0.796875 -0.421875 C 0.628906 -0.597656 0.5 -0.796875 0.40625 -1.015625 C 0.3125 -1.242188 0.265625 -1.472656 0.265625 -1.703125 Z M 0.75 -1.703125 C 0.75 -1.535156 0.78125 -1.367188 0.84375 -1.203125 C 0.914062 -1.035156 1.015625 -0.882812 1.140625 -0.75 C 1.273438 -0.613281 1.429688 -0.503906 1.609375 -0.421875 C 1.785156 -0.347656 1.976562 -0.3125 2.1875 -0.3125 C 2.5 -0.3125 2.765625 -0.375 2.984375 -0.5 C 3.203125 -0.625 3.363281 -0.789062 3.46875 -1 C 3.582031 -1.21875 3.640625 -1.453125 3.640625 -1.703125 C 3.640625 -1.859375 3.601562 -2.019531 3.53125 -2.1875 C 3.46875 -2.351562 3.375 -2.503906 3.25 -2.640625 C 3.132812 -2.785156 2.984375 -2.898438 2.796875 -2.984375 C 2.617188 -3.078125 2.414062 -3.125 2.1875 -3.125 C 1.957031 -3.125 1.75 -3.078125 1.5625 -2.984375 C 1.382812 -2.898438 1.234375 -2.785156 1.109375 -2.640625 C 0.992188 -2.503906 0.90625 -2.351562 0.84375 -2.1875 C 0.78125 -2.019531 0.75 -1.859375 0.75 -1.703125 Z M 1.3125 -2.65625 L 2.234375 -2.65625 C 2.441406 -2.65625 2.597656 -2.625 2.703125 -2.5625 C 2.816406 -2.507812 2.894531 -2.441406 2.9375 -2.359375 C 2.976562 -2.273438 3 -2.175781 3 -2.0625 C 3 -1.957031 2.957031 -1.867188 2.875 -1.796875 C 2.800781 -1.734375 2.707031 -1.691406 2.59375 -1.671875 C 2.6875 -1.648438 2.769531 -1.601562 2.84375 -1.53125 C 2.914062 -1.457031 2.953125 -1.367188 2.953125 -1.265625 C 2.953125 -1.140625 2.976562 -1.078125 3.03125 -1.078125 C 3.0625 -1.078125 3.078125 -1.101562 3.078125 -1.15625 L 3.078125 -1.265625 L 3.28125 -1.265625 L 3.28125 -1.09375 C 3.28125 -0.976562 3.25 -0.875 3.1875 -0.78125 C 3.125 -0.695312 3.019531 -0.65625 2.875 -0.65625 C 2.6875 -0.65625 2.550781 -0.703125 2.46875 -0.796875 C 2.382812 -0.890625 2.34375 -1.015625 2.34375 -1.171875 C 2.34375 -1.304688 2.320312 -1.394531 2.28125 -1.4375 C 2.25 -1.476562 2.171875 -1.5 2.046875 -1.5 L 2.046875 -1.0625 L 2.21875 -1.0625 L 2.21875 -0.6875 L 1.3125 -0.6875 L 1.3125 -1.0625 L 1.46875 -1.0625 L 1.46875 -2.28125 L 1.3125 -2.28125 Z M 2.046875 -2.28125 L 2.046875 -1.8125 L 2.171875 -1.8125 C 2.347656 -1.8125 2.4375 -1.882812 2.4375 -2.03125 C 2.4375 -2.195312 2.351562 -2.28125 2.1875 -2.28125 Z M 2.046875 -2.28125 "/></g></g><g clip-rule="nonzero" clip-path="url(#5ccef8c46a)"><g clip-rule="nonzero" clip-path="url(#69652c0eaf)"><g clip-rule="nonzero" clip-path="url(#0b1c9b5b78)"><path style=" stroke:none;fill-rule:nonzero;fill:#ff3131;fill-opacity:1;" d="M 67.503906 13.496094 C 67.496094 13.363281 67.480469 13.230469 67.480469 13.097656 C 67.484375 12.773438 67.566406 12.46875 67.746094 12.191406 C 67.9375 11.902344 68.207031 11.710938 68.523438 11.578125 C 68.746094 11.484375 68.980469 11.433594 69.21875 11.390625 C 69.601562 11.320312 69.96875 11.203125 70.3125 11.011719 C 70.585938 10.855469 70.824219 10.664062 70.996094 10.398438 C 71.03125 10.347656 71.0625 10.292969 71.097656 10.234375 C 71.097656 10.296875 71.101562 10.355469 71.101562 10.417969 C 71.101562 10.75 71.078125 11.082031 70.988281 11.40625 C 70.835938 11.972656 70.480469 12.34375 69.925781 12.53125 C 69.628906 12.632812 69.320312 12.691406 69.011719 12.757812 C 68.730469 12.820312 68.449219 12.886719 68.1875 13.007812 C 67.9375 13.121094 67.71875 13.273438 67.542969 13.480469 C 67.535156 13.488281 67.53125 13.492188 67.523438 13.5 C 67.515625 13.496094 67.507812 13.496094 67.503906 13.496094 Z M 67.503906 13.496094 "/></g></g></g><g clip-rule="nonzero" clip-path="url(#ca47caeca2)"><g clip-rule="nonzero" clip-path="url(#3f2424534a)"><g clip-rule="nonzero" clip-path="url(#8d85123085)"><path style=" stroke:none;fill-rule:nonzero;fill:#ff3131;fill-opacity:1;" d="M 71.058594 8.691406 C 71.054688 8.890625 71.054688 9.085938 71.039062 9.285156 C 71.019531 9.582031 71.019531 9.867188 70.898438 10.140625 C 70.746094 10.484375 70.441406 10.734375 70.101562 10.898438 C 69.828125 11.027344 69.535156 11.09375 69.242188 11.160156 C 68.953125 11.226562 68.667969 11.289062 68.390625 11.398438 C 68.0625 11.53125 67.789062 11.734375 67.597656 12.039062 C 67.59375 12.046875 67.589844 12.050781 67.578125 12.066406 C 67.574219 12.046875 67.570312 12.039062 67.566406 12.027344 C 67.503906 11.652344 67.519531 11.285156 67.648438 10.929688 C 67.789062 10.546875 68.046875 10.257812 68.421875 10.082031 C 68.671875 9.964844 68.933594 9.894531 69.203125 9.84375 C 69.601562 9.769531 69.984375 9.640625 70.332031 9.429688 C 70.59375 9.273438 70.820312 9.074219 70.980469 8.8125 C 71.003906 8.773438 71.023438 8.730469 71.042969 8.691406 C 71.050781 8.691406 71.054688 8.691406 71.058594 8.691406 Z M 71.058594 8.691406 "/></g></g></g><g clip-rule="nonzero" clip-path="url(#bf67bff338)"><g clip-rule="nonzero" clip-path="url(#7f9436f741)"><g clip-rule="nonzero" clip-path="url(#3ed30bed59)"><path style=" stroke:none;fill-rule:nonzero;fill:#ff3131;fill-opacity:1;" d="M 65.980469 18.207031 C 65.949219 18.066406 65.914062 17.929688 65.894531 17.789062 C 65.851562 17.445312 65.886719 17.109375 66.035156 16.792969 C 66.195312 16.460938 66.445312 16.214844 66.757812 16.027344 C 66.980469 15.894531 67.222656 15.804688 67.464844 15.722656 C 67.855469 15.585938 68.226562 15.410156 68.558594 15.152344 C 68.820312 14.949219 69.042969 14.707031 69.183594 14.402344 C 69.210938 14.34375 69.238281 14.28125 69.265625 14.214844 C 69.277344 14.277344 69.289062 14.34375 69.296875 14.40625 C 69.347656 14.757812 69.375 15.109375 69.332031 15.464844 C 69.257812 16.085938 68.9375 16.53125 68.382812 16.816406 C 68.085938 16.96875 67.769531 17.074219 67.457031 17.195312 C 67.171875 17.300781 66.886719 17.417969 66.625 17.585938 C 66.378906 17.742188 66.171875 17.9375 66.019531 18.183594 C 66.015625 18.191406 66.007812 18.199219 66.003906 18.203125 C 65.996094 18.203125 65.988281 18.207031 65.980469 18.207031 Z M 65.980469 18.207031 "/></g></g></g><g clip-rule="nonzero" clip-path="url(#22872ac7d0)"><g clip-rule="nonzero" clip-path="url(#1561af6982)"><g clip-rule="nonzero" clip-path="url(#ddbbf1f87f)"><path style=" stroke:none;fill-rule:nonzero;fill:#ff3131;fill-opacity:1;" d="M 68.988281 12.59375 C 69.011719 12.800781 69.042969 13.011719 69.058594 13.222656 C 69.082031 13.535156 69.128906 13.839844 69.042969 14.144531 C 68.933594 14.53125 68.652344 14.84375 68.320312 15.066406 C 68.050781 15.246094 67.753906 15.359375 67.453125 15.476562 C 67.160156 15.589844 66.867188 15.699219 66.59375 15.859375 C 66.265625 16.046875 66.011719 16.304688 65.855469 16.65625 C 65.851562 16.664062 65.847656 16.671875 65.839844 16.6875 C 65.832031 16.667969 65.824219 16.660156 65.820312 16.644531 C 65.699219 16.261719 65.65625 15.871094 65.738281 15.480469 C 65.828125 15.050781 66.054688 14.707031 66.421875 14.464844 C 66.667969 14.300781 66.933594 14.191406 67.207031 14.09375 C 67.617188 13.953125 68 13.761719 68.335938 13.484375 C 68.585938 13.277344 68.792969 13.035156 68.921875 12.730469 C 68.941406 12.6875 68.953125 12.640625 68.96875 12.59375 C 68.976562 12.59375 68.984375 12.59375 68.988281 12.59375 Z M 68.988281 12.59375 "/></g></g></g><g clip-rule="nonzero" clip-path="url(#5a7a6d8f09)"><g clip-rule="nonzero" clip-path="url(#dc9f7baee6)"><g clip-rule="nonzero" clip-path="url(#a15ef06d8c)"><path style=" stroke:none;fill-rule:nonzero;fill:#ff3131;fill-opacity:1;" d="M 65.105469 22.363281 C 65.074219 22.234375 65.039062 22.105469 65.019531 21.972656 C 64.972656 21.652344 65.003906 21.335938 65.144531 21.035156 C 65.289062 20.722656 65.523438 20.488281 65.8125 20.308594 C 66.019531 20.183594 66.246094 20.097656 66.476562 20.015625 C 66.84375 19.886719 67.1875 19.714844 67.496094 19.472656 C 67.742188 19.277344 67.945312 19.046875 68.078125 18.757812 C 68.101562 18.703125 68.125 18.644531 68.152344 18.582031 C 68.164062 18.640625 68.171875 18.703125 68.183594 18.761719 C 68.234375 19.089844 68.261719 19.421875 68.226562 19.757812 C 68.164062 20.339844 67.867188 20.761719 67.347656 21.035156 C 67.070312 21.179688 66.773438 21.285156 66.484375 21.398438 C 66.214844 21.503906 65.945312 21.613281 65.703125 21.773438 C 65.476562 21.921875 65.28125 22.109375 65.140625 22.34375 C 65.136719 22.347656 65.128906 22.355469 65.125 22.363281 C 65.117188 22.363281 65.109375 22.363281 65.105469 22.363281 Z M 65.105469 22.363281 "/></g></g></g><g clip-rule="nonzero" clip-path="url(#cd73a3e3fd)"><g clip-rule="nonzero" clip-path="url(#b3a4f52a00)"><g clip-rule="nonzero" clip-path="url(#69ea81d753)"><path style=" stroke:none;fill-rule:nonzero;fill:#ff3131;fill-opacity:1;" d="M 67.875 17.0625 C 67.898438 17.257812 67.929688 17.453125 67.949219 17.652344 C 67.976562 17.945312 68.019531 18.230469 67.941406 18.519531 C 67.84375 18.882812 67.582031 19.179688 67.269531 19.390625 C 67.019531 19.5625 66.742188 19.671875 66.460938 19.785156 C 66.1875 19.894531 65.910156 20 65.65625 20.152344 C 65.351562 20.332031 65.113281 20.578125 64.972656 20.90625 C 64.96875 20.914062 64.964844 20.921875 64.957031 20.9375 C 64.949219 20.921875 64.941406 20.910156 64.941406 20.898438 C 64.820312 20.542969 64.777344 20.175781 64.851562 19.804688 C 64.929688 19.402344 65.140625 19.074219 65.484375 18.84375 C 65.710938 18.6875 65.960938 18.582031 66.21875 18.488281 C 66.601562 18.351562 66.957031 18.167969 67.269531 17.90625 C 67.503906 17.707031 67.699219 17.480469 67.816406 17.191406 C 67.832031 17.152344 67.84375 17.105469 67.859375 17.0625 C 67.863281 17.0625 67.871094 17.0625 67.875 17.0625 Z M 67.875 17.0625 "/></g></g></g><g clip-rule="nonzero" clip-path="url(#83a6077549)"><g clip-rule="nonzero" clip-path="url(#c1f1f84ed9)"><g clip-rule="nonzero" clip-path="url(#c8f822da20)"><path style=" stroke:none;fill-rule:nonzero;fill:#ff3131;fill-opacity:1;" d="M 74.597656 17 C 74.691406 17.09375 74.789062 17.183594 74.878906 17.28125 C 75.09375 17.527344 75.238281 17.808594 75.285156 18.136719 C 75.335938 18.476562 75.261719 18.800781 75.117188 19.109375 C 75.011719 19.328125 74.871094 19.523438 74.722656 19.714844 C 74.484375 20.023438 74.289062 20.355469 74.164062 20.726562 C 74.0625 21.023438 74.015625 21.328125 74.0625 21.640625 C 74.070312 21.703125 74.085938 21.761719 74.097656 21.828125 C 74.054688 21.785156 74.011719 21.738281 73.972656 21.695312 C 73.75 21.449219 73.546875 21.183594 73.394531 20.882812 C 73.132812 20.359375 73.148438 19.84375 73.4375 19.335938 C 73.589844 19.0625 73.78125 18.8125 73.964844 18.558594 C 74.132812 18.324219 74.296875 18.085938 74.414062 17.820312 C 74.523438 17.570312 74.585938 17.3125 74.578125 17.039062 C 74.578125 17.03125 74.578125 17.019531 74.578125 17.011719 C 74.585938 17.007812 74.589844 17.003906 74.597656 17 Z M 74.597656 17 "/></g></g></g><g clip-rule="nonzero" clip-path="url(#310e6e4197)"><g clip-rule="nonzero" clip-path="url(#051793f446)"><g clip-rule="nonzero" clip-path="url(#55d9f02916)"><path style=" stroke:none;fill-rule:nonzero;fill:#ff3131;fill-opacity:1;" d="M 75.15625 22.953125 C 75.027344 22.800781 74.894531 22.65625 74.773438 22.5 C 74.589844 22.265625 74.398438 22.050781 74.304688 21.765625 C 74.1875 21.410156 74.25 21.019531 74.394531 20.671875 C 74.511719 20.394531 74.6875 20.148438 74.859375 19.902344 C 75.03125 19.660156 75.203125 19.421875 75.335938 19.15625 C 75.492188 18.835938 75.558594 18.503906 75.5 18.148438 C 75.496094 18.140625 75.496094 18.132812 75.496094 18.117188 C 75.507812 18.128906 75.519531 18.132812 75.53125 18.140625 C 75.824219 18.375 76.058594 18.660156 76.199219 19.011719 C 76.351562 19.390625 76.351562 19.777344 76.191406 20.160156 C 76.082031 20.414062 75.933594 20.636719 75.765625 20.855469 C 75.519531 21.175781 75.320312 21.527344 75.203125 21.917969 C 75.113281 22.210938 75.074219 22.507812 75.132812 22.8125 C 75.140625 22.855469 75.15625 22.898438 75.167969 22.945312 C 75.164062 22.949219 75.15625 22.953125 75.15625 22.953125 Z M 75.15625 22.953125 "/></g></g></g><g clip-rule="nonzero" clip-path="url(#8ca969a02a)"><g clip-rule="nonzero" clip-path="url(#617c5a13db)"><g clip-rule="nonzero" clip-path="url(#63654b277b)"><path style=" stroke:none;fill-rule:nonzero;fill:#ff3131;fill-opacity:1;" d="M 73.402344 12.46875 C 73.515625 12.554688 73.636719 12.632812 73.742188 12.722656 C 74.007812 12.949219 74.203125 13.222656 74.304688 13.558594 C 74.410156 13.914062 74.382812 14.261719 74.277344 14.613281 C 74.199219 14.859375 74.082031 15.085938 73.953125 15.3125 C 73.753906 15.671875 73.597656 16.054688 73.519531 16.464844 C 73.460938 16.792969 73.457031 17.121094 73.554688 17.441406 C 73.574219 17.503906 73.597656 17.566406 73.621094 17.636719 C 73.570312 17.59375 73.519531 17.554688 73.46875 17.511719 C 73.195312 17.289062 72.941406 17.042969 72.734375 16.75 C 72.375 16.238281 72.316406 15.691406 72.539062 15.109375 C 72.660156 14.796875 72.824219 14.507812 72.976562 14.210938 C 73.117188 13.9375 73.253906 13.660156 73.335938 13.363281 C 73.414062 13.082031 73.4375 12.800781 73.386719 12.511719 C 73.386719 12.503906 73.386719 12.496094 73.386719 12.488281 C 73.394531 12.480469 73.398438 12.476562 73.402344 12.46875 Z M 73.402344 12.46875 "/></g></g></g><g clip-rule="nonzero" clip-path="url(#ef3e3b7619)"><g clip-rule="nonzero" clip-path="url(#525824923c)"><g clip-rule="nonzero" clip-path="url(#c9a8feab24)"><path style=" stroke:none;fill-rule:nonzero;fill:#ff3131;fill-opacity:1;" d="M 74.910156 18.65625 C 74.75 18.519531 74.589844 18.382812 74.4375 18.238281 C 74.207031 18.019531 73.972656 17.824219 73.832031 17.539062 C 73.652344 17.179688 73.65625 16.757812 73.757812 16.371094 C 73.835938 16.058594 73.984375 15.773438 74.128906 15.488281 C 74.269531 15.207031 74.414062 14.929688 74.511719 14.628906 C 74.628906 14.265625 74.648438 13.90625 74.53125 13.542969 C 74.527344 13.535156 74.527344 13.523438 74.519531 13.507812 C 74.539062 13.515625 74.550781 13.519531 74.5625 13.527344 C 74.910156 13.726562 75.199219 13.992188 75.402344 14.339844 C 75.621094 14.71875 75.683594 15.125 75.570312 15.554688 C 75.496094 15.835938 75.371094 16.097656 75.230469 16.351562 C 75.019531 16.730469 74.863281 17.128906 74.800781 17.558594 C 74.75 17.878906 74.757812 18.199219 74.863281 18.511719 C 74.878906 18.554688 74.902344 18.601562 74.921875 18.644531 C 74.917969 18.648438 74.914062 18.65625 74.910156 18.65625 Z M 74.910156 18.65625 "/></g></g></g><g clip-rule="nonzero" clip-path="url(#e12cbd3eb4)"><g clip-rule="nonzero" clip-path="url(#51983a7480)"><g clip-rule="nonzero" clip-path="url(#fb7ab48b6c)"><path style=" stroke:none;fill-rule:nonzero;fill:#ff3131;fill-opacity:1;" d="M 71.28125 8.789062 C 71.390625 8.867188 71.503906 8.9375 71.605469 9.023438 C 71.855469 9.230469 72.042969 9.488281 72.140625 9.800781 C 72.242188 10.132812 72.222656 10.460938 72.125 10.792969 C 72.054688 11.023438 71.945312 11.238281 71.828125 11.453125 C 71.640625 11.792969 71.5 12.152344 71.433594 12.539062 C 71.378906 12.847656 71.378906 13.15625 71.472656 13.457031 C 71.492188 13.515625 71.515625 13.574219 71.539062 13.636719 C 71.488281 13.601562 71.441406 13.5625 71.394531 13.523438 C 71.132812 13.316406 70.894531 13.085938 70.699219 12.8125 C 70.355469 12.335938 70.292969 11.824219 70.5 11.277344 C 70.609375 10.980469 70.757812 10.707031 70.898438 10.425781 C 71.03125 10.167969 71.15625 9.90625 71.230469 9.628906 C 71.300781 9.363281 71.320312 9.097656 71.269531 8.828125 C 71.269531 8.820312 71.269531 8.8125 71.269531 8.804688 C 71.273438 8.796875 71.277344 8.792969 71.28125 8.789062 Z M 71.28125 8.789062 "/></g></g></g><g clip-rule="nonzero" clip-path="url(#a72f1c19f5)"><g clip-rule="nonzero" clip-path="url(#9ab004850c)"><g clip-rule="nonzero" clip-path="url(#81a83d26db)"><path style=" stroke:none;fill-rule:nonzero;fill:#ff3131;fill-opacity:1;" d="M 72.757812 14.585938 C 72.609375 14.457031 72.453125 14.332031 72.308594 14.195312 C 72.09375 13.992188 71.871094 13.808594 71.734375 13.542969 C 71.5625 13.207031 71.5625 12.8125 71.652344 12.449219 C 71.726562 12.152344 71.859375 11.882812 71.992188 11.613281 C 72.125 11.351562 72.257812 11.085938 72.347656 10.804688 C 72.453125 10.464844 72.464844 10.125 72.351562 9.785156 C 72.351562 9.777344 72.347656 9.769531 72.34375 9.753906 C 72.359375 9.757812 72.371094 9.761719 72.382812 9.769531 C 72.710938 9.957031 72.988281 10.199219 73.179688 10.527344 C 73.386719 10.878906 73.449219 11.261719 73.347656 11.664062 C 73.28125 11.929688 73.167969 12.175781 73.039062 12.417969 C 72.84375 12.773438 72.703125 13.148438 72.644531 13.554688 C 72.601562 13.855469 72.609375 14.15625 72.714844 14.449219 C 72.730469 14.492188 72.75 14.53125 72.769531 14.574219 C 72.765625 14.578125 72.761719 14.582031 72.757812 14.585938 Z M 72.757812 14.585938 "/></g></g></g><g clip-rule="nonzero" clip-path="url(#996a947ed8)"><g clip-rule="nonzero" clip-path="url(#f8734df702)"><g clip-rule="nonzero" clip-path="url(#9a0b84480d)"><path style=" stroke:none;fill-rule:nonzero;fill:#ff5757;fill-opacity:1;" d="M 68.5 17.105469 C 68.570312 17.007812 68.632812 16.90625 68.710938 16.816406 C 68.894531 16.589844 69.121094 16.425781 69.402344 16.335938 C 69.695312 16.242188 69.988281 16.261719 70.28125 16.34375 C 70.492188 16.40625 70.683594 16.503906 70.871094 16.605469 C 71.175781 16.769531 71.496094 16.894531 71.839844 16.953125 C 72.117188 17 72.390625 17 72.660156 16.914062 C 72.710938 16.894531 72.765625 16.875 72.820312 16.855469 C 72.789062 16.898438 72.753906 16.941406 72.722656 16.984375 C 72.535156 17.214844 72.332031 17.429688 72.089844 17.605469 C 71.667969 17.914062 71.210938 17.972656 70.722656 17.792969 C 70.460938 17.695312 70.214844 17.5625 69.964844 17.4375 C 69.734375 17.320312 69.5 17.210938 69.25 17.148438 C 69.015625 17.085938 68.777344 17.070312 68.535156 17.113281 C 68.53125 17.117188 68.523438 17.117188 68.515625 17.117188 C 68.511719 17.113281 68.507812 17.105469 68.5 17.105469 Z M 68.5 17.105469 "/></g></g></g><g clip-rule="nonzero" clip-path="url(#72f9218269)"><g clip-rule="nonzero" clip-path="url(#7af6ba089d)"><g clip-rule="nonzero" clip-path="url(#50008a5b68)"><path style=" stroke:none;fill-rule:nonzero;fill:#ff5757;fill-opacity:1;" d="M 73.660156 15.765625 C 73.546875 15.898438 73.433594 16.035156 73.3125 16.164062 C 73.136719 16.359375 72.972656 16.558594 72.738281 16.679688 C 72.4375 16.832031 72.085938 16.835938 71.761719 16.757812 C 71.5 16.695312 71.257812 16.574219 71.015625 16.457031 C 70.78125 16.34375 70.546875 16.222656 70.292969 16.144531 C 69.988281 16.054688 69.6875 16.042969 69.382812 16.144531 C 69.375 16.148438 69.371094 16.148438 69.355469 16.152344 C 69.363281 16.140625 69.363281 16.128906 69.371094 16.121094 C 69.535156 15.828125 69.753906 15.578125 70.042969 15.40625 C 70.355469 15.21875 70.695312 15.164062 71.054688 15.25 C 71.292969 15.308594 71.511719 15.410156 71.726562 15.523438 C 72.042969 15.695312 72.378906 15.820312 72.742188 15.871094 C 73.011719 15.90625 73.277344 15.898438 73.539062 15.804688 C 73.574219 15.789062 73.613281 15.769531 73.648438 15.753906 C 73.652344 15.757812 73.65625 15.761719 73.660156 15.765625 Z M 73.660156 15.765625 "/></g></g></g></g></svg>