<svg xmlns="http://www.w3.org/2000/svg" xmlns:xlink="http://www.w3.org/1999/xlink" width="279" zoomAndPan="magnify" viewBox="0 0 209.25 36.750001" height="49" preserveAspectRatio="xMidYMid meet" version="1.2"><defs><clipPath id="f7ea0d7d34"><path d="M 95.550781 9 L 110.4375 9 L 110.4375 23 L 95.550781 23 Z M 95.550781 9 "/></clipPath><clipPath id="ea53fb6be8"><path d="M 98 7.035156 L 108 7.035156 L 108 20 L 98 20 Z M 98 7.035156 "/></clipPath><clipPath id="468330eb77"><path d="M 68 10 L 72 10 L 72 14 L 68 14 Z M 68 10 "/></clipPath><clipPath id="54b5cf96f0"><path d="M 70.25 7.738281 L 73.429688 9.679688 L 70.324219 14.765625 L 67.144531 12.824219 Z M 70.25 7.738281 "/></clipPath><clipPath id="a9837150d4"><path d="M 70.25 7.738281 L 73.429688 9.679688 L 70.324219 14.765625 L 67.144531 12.824219 Z M 70.25 7.738281 "/></clipPath><clipPath id="b5b0913d10"><path d="M 68 8 L 72 8 L 72 13 L 68 13 Z M 68 8 "/></clipPath><clipPath id="96ed2334b5"><path d="M 70.25 7.738281 L 73.429688 9.679688 L 70.324219 14.765625 L 67.144531 12.824219 Z M 70.25 7.738281 "/></clipPath><clipPath id="9469ef0b38"><path d="M 70.25 7.738281 L 73.429688 9.679688 L 70.324219 14.765625 L 67.144531 12.824219 Z M 70.25 7.738281 "/></clipPath><clipPath id="a88849c9b9"><path d="M 66 14 L 71 14 L 71 19 L 66 19 Z M 66 14 "/></clipPath><clipPath id="06cdbd3cf9"><path d="M 67.945312 11.832031 L 71.371094 13.289062 L 68.742188 19.457031 L 65.316406 18 Z M 67.945312 11.832031 "/></clipPath><clipPath id="2b18ca2eca"><path d="M 67.945312 11.832031 L 71.371094 13.289062 L 68.742188 19.457031 L 65.316406 18 Z M 67.945312 11.832031 "/></clipPath><clipPath id="77485c9ee7"><path d="M 66 12 L 70 12 L 70 17 L 66 17 Z M 66 12 "/></clipPath><clipPath id="5511762c66"><path d="M 67.945312 11.832031 L 71.371094 13.289062 L 68.742188 19.457031 L 65.316406 18 Z M 67.945312 11.832031 "/></clipPath><clipPath id="dc461c5f41"><path d="M 67.945312 11.832031 L 71.371094 13.289062 L 68.742188 19.457031 L 65.316406 18 Z M 67.945312 11.832031 "/></clipPath><clipPath id="d9d95ef158"><path d="M 65 18 L 69 18 L 69 23 L 65 23 Z M 65 18 "/></clipPath><clipPath id="618b706b62"><path d="M 66.933594 16.363281 L 70.371094 17.785156 L 68.09375 23.292969 L 64.652344 21.867188 Z M 66.933594 16.363281 "/></clipPath><clipPath id="b70cf44d32"><path d="M 66.933594 16.363281 L 70.371094 17.785156 L 68.09375 23.292969 L 64.652344 21.867188 Z M 66.933594 16.363281 "/></clipPath><clipPath id="41d53c591e"><path d="M 65 17 L 69 17 L 69 21 L 65 21 Z M 65 17 "/></clipPath><clipPath id="15357eb1c3"><path d="M 66.933594 16.363281 L 70.371094 17.785156 L 68.09375 23.292969 L 64.652344 21.867188 Z M 66.933594 16.363281 "/></clipPath><clipPath id="78ddc665cf"><path d="M 66.933594 16.363281 L 70.371094 17.785156 L 68.09375 23.292969 L 64.652344 21.867188 Z M 66.933594 16.363281 "/></clipPath><clipPath id="753586df0a"><path d="M 73 17 L 77 17 L 77 22 L 73 22 Z M 73 17 "/></clipPath><clipPath id="86c6758bf8"><path d="M 77.691406 22.625 L 74.03125 23.300781 L 72.949219 17.441406 L 76.613281 16.765625 Z M 77.691406 22.625 "/></clipPath><clipPath id="9d354fd29d"><path d="M 77.691406 22.625 L 74.03125 23.300781 L 72.949219 17.441406 L 76.613281 16.765625 Z M 77.691406 22.625 "/></clipPath><clipPath id="a3aed8ec0b"><path d="M 74 18 L 78 18 L 78 23 L 74 23 Z M 74 18 "/></clipPath><clipPath id="dac4f04130"><path d="M 77.691406 22.625 L 74.03125 23.300781 L 72.949219 17.441406 L 76.613281 16.765625 Z M 77.691406 22.625 "/></clipPath><clipPath id="90ad37b2cb"><path d="M 77.691406 22.625 L 74.03125 23.300781 L 72.949219 17.441406 L 76.613281 16.765625 Z M 77.691406 22.625 "/></clipPath><clipPath id="691611f0dd"><path d="M 73 12 L 76 12 L 76 18 L 73 18 Z M 73 12 "/></clipPath><clipPath id="52e1ded8e0"><path d="M 77.492188 18.03125 L 73.96875 19.230469 L 71.808594 12.882812 L 75.335938 11.683594 Z M 77.492188 18.03125 "/></clipPath><clipPath id="5e2b8145a5"><path d="M 77.492188 18.03125 L 73.96875 19.230469 L 71.808594 12.882812 L 75.335938 11.683594 Z M 77.492188 18.03125 "/></clipPath><clipPath id="1605257081"><path d="M 74 13 L 77 13 L 77 19 L 74 19 Z M 74 13 "/></clipPath><clipPath id="7e28f8d2f6"><path d="M 77.492188 18.03125 L 73.96875 19.230469 L 71.808594 12.882812 L 75.335938 11.683594 Z M 77.492188 18.03125 "/></clipPath><clipPath id="5d87938817"><path d="M 77.492188 18.03125 L 73.96875 19.230469 L 71.808594 12.882812 L 75.335938 11.683594 Z M 77.492188 18.03125 "/></clipPath><clipPath id="9a19e470d6"><path d="M 71 8 L 73 8 L 73 14 L 71 14 Z M 71 8 "/></clipPath><clipPath id="abd8179f11"><path d="M 75.226562 13.980469 L 71.714844 15.214844 L 69.734375 9.59375 L 73.25 8.359375 Z M 75.226562 13.980469 "/></clipPath><clipPath id="c7bd70e291"><path d="M 75.226562 13.980469 L 71.714844 15.214844 L 69.734375 9.59375 L 73.25 8.359375 Z M 75.226562 13.980469 "/></clipPath><clipPath id="6b3b59eba2"><path d="M 72 9 L 75 9 L 75 15 L 72 15 Z M 72 9 "/></clipPath><clipPath id="429f24bd45"><path d="M 75.226562 13.980469 L 71.714844 15.214844 L 69.734375 9.59375 L 73.25 8.359375 Z M 75.226562 13.980469 "/></clipPath><clipPath id="3c6d9d66fa"><path d="M 75.226562 13.980469 L 71.714844 15.214844 L 69.734375 9.59375 L 73.25 8.359375 Z M 75.226562 13.980469 "/></clipPath><clipPath id="8432f662b8"><path d="M 69 16 L 74 16 L 74 18 L 69 18 Z M 69 16 "/></clipPath><clipPath id="81f7da4adf"><path d="M 73.859375 14.234375 L 74.859375 17.039062 L 69.25 19.042969 L 68.246094 16.238281 Z M 73.859375 14.234375 "/></clipPath><clipPath id="67f2e2aa8f"><path d="M 73.859375 14.234375 L 74.859375 17.039062 L 69.25 19.042969 L 68.246094 16.238281 Z M 73.859375 14.234375 "/></clipPath><clipPath id="2fb825df05"><path d="M 70 15 L 75 15 L 75 17 L 70 17 Z M 70 15 "/></clipPath><clipPath id="a3cbfea16b"><path d="M 73.859375 14.234375 L 74.859375 17.039062 L 69.25 19.042969 L 68.246094 16.238281 Z M 73.859375 14.234375 "/></clipPath><clipPath id="e28646d569"><path d="M 73.859375 14.234375 L 74.859375 17.039062 L 69.25 19.042969 L 68.246094 16.238281 Z M 73.859375 14.234375 "/></clipPath></defs><g id="781a11aad8"><g style="fill:#ffffff;fill-opacity:1;"><g transform="translate(47.227469, 22.635221)"><path style="stroke:none" d="M 10.5625 0 L 9.9375 -1.28125 C 9.71875 -0.894531 9.3125 -0.550781 8.71875 -0.25 C 8.132812 0.0390625 7.453125 0.1875 6.671875 0.1875 C 5.492188 0.1875 4.421875 -0.101562 3.453125 -0.6875 C 2.484375 -1.269531 1.710938 -2.09375 1.140625 -3.15625 C 0.578125 -4.226562 0.296875 -5.492188 0.296875 -6.953125 C 0.296875 -8.054688 0.46875 -9.0625 0.8125 -9.96875 C 1.164062 -10.882812 1.640625 -11.671875 2.234375 -12.328125 C 2.828125 -12.992188 3.492188 -13.503906 4.234375 -13.859375 C 4.972656 -14.222656 5.738281 -14.40625 6.53125 -14.40625 C 7.257812 -14.40625 7.863281 -14.332031 8.34375 -14.1875 C 8.820312 -14.050781 9.203125 -13.878906 9.484375 -13.671875 C 9.765625 -13.472656 9.976562 -13.28125 10.125 -13.09375 C 10.28125 -12.914062 10.398438 -12.785156 10.484375 -12.703125 L 10.90625 -14.171875 L 13.921875 -14.171875 L 13.921875 -8.1875 L 10.296875 -8.1875 C 10.265625 -9.007812 10.019531 -9.644531 9.5625 -10.09375 C 9.101562 -10.539062 8.578125 -10.765625 7.984375 -10.765625 C 7.441406 -10.765625 6.960938 -10.585938 6.546875 -10.234375 C 6.128906 -9.878906 5.800781 -9.410156 5.5625 -8.828125 C 5.320312 -8.253906 5.203125 -7.628906 5.203125 -6.953125 C 5.203125 -6.265625 5.3125 -5.640625 5.53125 -5.078125 C 5.75 -4.515625 6.066406 -4.0625 6.484375 -3.71875 C 6.898438 -3.382812 7.398438 -3.21875 7.984375 -3.21875 C 8.566406 -3.21875 9 -3.316406 9.28125 -3.515625 C 9.5625 -3.722656 9.78125 -3.957031 9.9375 -4.21875 L 9.9375 -5.0625 L 8.6875 -5.0625 L 8.6875 -7.234375 L 15.421875 -7.234375 L 15.421875 -5.0625 L 14.609375 -5.0625 L 14.609375 0 Z M 10.5625 0 "/></g></g><g style="fill:#ffffff;fill-opacity:1;"><g transform="translate(62.952527, 22.635221)"><path style="stroke:none" d=""/></g></g><g style="fill:#ffffff;fill-opacity:1;"><g transform="translate(68.015751, 22.635221)"><path style="stroke:none" d=""/></g></g><g style="fill:#ffffff;fill-opacity:1;"><g transform="translate(73.078975, 22.635221)"><path style="stroke:none" d=""/></g></g><g style="fill:#ffffff;fill-opacity:1;"><g transform="translate(78.153804, 22.635221)"><path style="stroke:none" d="M 0.5 0 L 0.5 -5.109375 L 4.28125 -5.109375 C 4.28125 -4.691406 4.367188 -4.347656 4.546875 -4.078125 C 4.734375 -3.816406 4.960938 -3.613281 5.234375 -3.46875 C 5.515625 -3.332031 5.796875 -3.234375 6.078125 -3.171875 C 6.359375 -3.117188 6.609375 -3.085938 6.828125 -3.078125 C 7.066406 -3.078125 7.316406 -3.097656 7.578125 -3.140625 C 7.847656 -3.191406 8.078125 -3.289062 8.265625 -3.4375 C 8.453125 -3.59375 8.546875 -3.8125 8.546875 -4.09375 C 8.546875 -4.320312 8.40625 -4.507812 8.125 -4.65625 C 7.84375 -4.8125 7.472656 -4.957031 7.015625 -5.09375 C 6.554688 -5.226562 6.046875 -5.367188 5.484375 -5.515625 C 4.929688 -5.671875 4.378906 -5.863281 3.828125 -6.09375 C 3.273438 -6.320312 2.769531 -6.613281 2.3125 -6.96875 C 1.851562 -7.332031 1.476562 -7.769531 1.1875 -8.28125 C 0.90625 -8.800781 0.765625 -9.429688 0.765625 -10.171875 C 0.765625 -10.929688 0.921875 -11.582031 1.234375 -12.125 C 1.546875 -12.675781 1.945312 -13.125 2.4375 -13.46875 C 2.9375 -13.820312 3.460938 -14.085938 4.015625 -14.265625 C 4.566406 -14.441406 5.09375 -14.53125 5.59375 -14.53125 C 6.445312 -14.53125 7.265625 -14.375 8.046875 -14.0625 C 8.828125 -13.75 9.421875 -13.21875 9.828125 -12.46875 L 10.03125 -14.171875 L 13.515625 -14.171875 L 13.515625 -9.078125 L 9.84375 -9.078125 C 9.84375 -9.835938 9.585938 -10.421875 9.078125 -10.828125 C 8.578125 -11.234375 7.96875 -11.4375 7.25 -11.4375 C 6.957031 -11.4375 6.648438 -11.34375 6.328125 -11.15625 C 6.015625 -10.96875 5.859375 -10.703125 5.859375 -10.359375 C 5.859375 -10.054688 6.003906 -9.800781 6.296875 -9.59375 C 6.585938 -9.382812 6.972656 -9.191406 7.453125 -9.015625 C 7.929688 -8.835938 8.453125 -8.65625 9.015625 -8.46875 C 9.585938 -8.289062 10.15625 -8.082031 10.71875 -7.84375 C 11.289062 -7.601562 11.816406 -7.3125 12.296875 -6.96875 C 12.773438 -6.632812 13.15625 -6.222656 13.4375 -5.734375 C 13.726562 -5.242188 13.875 -4.664062 13.875 -4 C 13.875 -3.207031 13.710938 -2.535156 13.390625 -1.984375 C 13.066406 -1.429688 12.640625 -0.988281 12.109375 -0.65625 C 11.578125 -0.320312 10.992188 -0.0820312 10.359375 0.0625 C 9.734375 0.21875 9.117188 0.296875 8.515625 0.296875 C 7.484375 0.296875 6.613281 0.101562 5.90625 -0.28125 C 5.207031 -0.675781 4.664062 -1.101562 4.28125 -1.5625 L 4.046875 0 Z M 0.5 0 "/></g></g><g style="fill:#ffffff;fill-opacity:1;"><g transform="translate(92.540311, 22.635221)"><path style="stroke:none" d=""/></g></g><g style="fill:#ffffff;fill-opacity:1;"><g transform="translate(97.603535, 22.635221)"><path style="stroke:none" d=""/></g></g><g style="fill:#ffffff;fill-opacity:1;"><g transform="translate(102.666759, 22.635221)"><path style="stroke:none" d=""/></g></g><g style="fill:#ffffff;fill-opacity:1;"><g transform="translate(107.729983, 22.635221)"><path style="stroke:none" d=""/></g></g><g style="fill:#ffffff;fill-opacity:1;"><g transform="translate(112.804801, 22.635221)"><path style="stroke:none" d="M 0.5 -14.171875 L 7.078125 -14.171875 C 8.242188 -14.171875 9.195312 -14.054688 9.9375 -13.828125 C 10.675781 -13.597656 11.238281 -13.28125 11.625 -12.875 C 12.019531 -12.46875 12.289062 -12.003906 12.4375 -11.484375 C 12.59375 -10.960938 12.671875 -10.410156 12.671875 -9.828125 C 12.671875 -8.929688 12.425781 -8.1875 11.9375 -7.59375 C 11.445312 -7 10.800781 -6.550781 10 -6.25 C 9.195312 -5.957031 8.3125 -5.8125 7.34375 -5.8125 L 5.796875 -5.8125 L 5.796875 -2.671875 L 7.03125 -2.671875 L 7.03125 0 L 0.5 0 L 0.5 -2.671875 L 1.640625 -2.671875 L 1.640625 -11.515625 L 0.5 -11.515625 Z M 5.796875 -11.53125 L 5.796875 -8 L 6.703125 -8 C 7.296875 -8 7.773438 -8.144531 8.140625 -8.4375 C 8.503906 -8.726562 8.6875 -9.144531 8.6875 -9.6875 C 8.6875 -10.28125 8.519531 -10.734375 8.1875 -11.046875 C 7.863281 -11.367188 7.40625 -11.53125 6.8125 -11.53125 Z M 5.796875 -11.53125 "/></g></g><g style="fill:#ffffff;fill-opacity:1;"><g transform="translate(125.766666, 22.635221)"><path style="stroke:none" d="M 16.375 0 L 8.25 0 L 8.25 -2.65625 L 10.171875 -2.65625 L 9.75 -4.03125 L 5.59375 -4.03125 L 5.171875 -2.65625 L 6.75 -2.65625 L 6.75 0 L 0.296875 0 L 0.296875 -2.65625 L 1.6875 -2.65625 L 4.421875 -11.546875 L 3.59375 -11.546875 L 3.59375 -14.171875 L 11.375 -14.171875 L 14.953125 -2.65625 L 16.375 -2.65625 Z M 6.34375 -6.46875 L 9 -6.46875 L 7.65625 -10.84375 Z M 6.34375 -6.46875 "/></g></g><g style="fill:#ffffff;fill-opacity:1;"><g transform="translate(142.434813, 22.635221)"><path style="stroke:none" d="M 7.484375 -7.78125 L 7.5625 -7.78125 C 7.601562 -7.988281 7.707031 -8.269531 7.875 -8.625 C 8.050781 -8.976562 8.195312 -9.28125 8.3125 -9.53125 L 9.421875 -11.578125 L 8.3125 -11.578125 L 8.3125 -14.171875 L 13.765625 -14.171875 L 13.765625 -11.578125 L 12.671875 -11.578125 L 8.921875 -4.984375 L 8.921875 -2.640625 L 10.046875 -2.640625 L 10.046875 0 L 3.5625 0 L 3.5625 -2.640625 L 4.71875 -2.640625 L 4.71875 -5.03125 L 0.796875 -11.578125 L -0.203125 -11.578125 L -0.203125 -14.171875 L 6.734375 -14.171875 L 6.734375 -11.578125 L 5.671875 -11.578125 L 6.84375 -9.421875 C 6.882812 -9.296875 6.945312 -9.125 7.03125 -8.90625 C 7.125 -8.695312 7.210938 -8.488281 7.296875 -8.28125 C 7.390625 -8.070312 7.453125 -7.90625 7.484375 -7.78125 Z M 7.484375 -7.78125 "/></g></g><g style="fill:#000000;fill-opacity:1;"><g transform="translate(155.987602, 22.635221)"><path style="stroke:none" d=""/></g></g><g clip-rule="nonzero" clip-path="url(#f7ea0d7d34)"><path style=" stroke:none;fill-rule:evenodd;fill:#ffffff;fill-opacity:1;" d="M 105.855469 9.792969 C 106.070312 9.902344 106.277344 10.023438 106.480469 10.15625 L 107.617188 9.574219 L 108.257812 10.210938 L 108.894531 10.851562 L 108.3125 11.988281 C 108.746094 12.644531 109.058594 13.386719 109.222656 14.183594 L 110.4375 14.578125 L 110.4375 16.382812 L 109.222656 16.777344 C 109.058594 17.570312 108.746094 18.3125 108.3125 18.96875 L 108.894531 20.109375 L 107.617188 21.386719 L 106.480469 20.804688 C 105.824219 21.234375 105.082031 21.546875 104.285156 21.710938 L 103.894531 22.929688 L 102.085938 22.929688 L 101.691406 21.710938 C 100.898438 21.546875 100.15625 21.234375 99.5 20.804688 L 98.359375 21.386719 L 97.722656 20.746094 L 97.085938 20.109375 L 97.664062 18.96875 C 97.234375 18.3125 96.921875 17.570312 96.757812 16.777344 L 95.539062 16.382812 L 95.539062 14.578125 L 96.757812 14.183594 C 96.921875 13.386719 97.234375 12.644531 97.664062 11.988281 L 97.085938 10.851562 L 97.722656 10.210938 L 98.359375 9.574219 L 99.5 10.15625 C 99.699219 10.023438 99.910156 9.902344 100.125 9.792969 C 99.9375 10.03125 99.75 10.269531 99.570312 10.507812 C 98.417969 12.039062 97.648438 13.5 97.648438 15.480469 C 97.648438 18.429688 100.039062 20.820312 102.988281 20.820312 C 105.9375 20.820312 108.328125 18.429688 108.328125 15.480469 C 108.328125 13.5 107.558594 12.039062 106.40625 10.507812 C 106.226562 10.269531 106.042969 10.03125 105.855469 9.792969 "/></g><g clip-rule="nonzero" clip-path="url(#ea53fb6be8)"><path style=" stroke:none;fill-rule:evenodd;fill:#00bf63;fill-opacity:1;" d="M 105.261719 19.351562 C 103.011719 19.394531 101.953125 18.453125 101.335938 17.625 C 100.128906 15.996094 101.25 13.6875 102.554688 12.421875 C 103.015625 11.972656 103.277344 11.449219 103.410156 10.910156 C 103.859375 9.074219 102.78125 7.035156 102.78125 7.035156 C 101.742188 10.167969 98.5 11.714844 98.5 15.480469 C 98.5 17.960938 100.507812 19.96875 102.988281 19.96875 C 103.820312 19.96875 104.597656 19.746094 105.261719 19.351562 M 105.699219 15.480469 C 105.699219 18 103.167969 18.535156 101.320312 16.722656 C 101.421875 18.417969 105.882812 20.425781 107.242188 17 C 108.496094 13.835938 105.535156 11.09375 103.992188 8.667969 C 103.9375 9.347656 103.890625 10.722656 104.238281 11.976562 C 104.953125 12.914062 105.523438 13.820312 105.667969 15.070312 C 105.683594 15.210938 105.699219 15.339844 105.699219 15.480469 Z M 105.699219 15.480469 "/></g><path style=" stroke:none;fill-rule:evenodd;fill:#00bf63;fill-opacity:1;" d="M 104.742188 14.070312 C 104.742188 14.070312 105.347656 15.5625 104.425781 17.210938 C 104.921875 16.796875 105.238281 16.175781 105.238281 15.480469 C 105.238281 14.945312 105.050781 14.457031 104.742188 14.070312 "/><g style="fill:#3f5386;fill-opacity:1;"><g transform="translate(155.392474, 8.6599)"><path style="stroke:none" d="M 0.203125 -1.375 C 0.203125 -1.539062 0.234375 -1.710938 0.296875 -1.890625 C 0.367188 -2.066406 0.46875 -2.226562 0.59375 -2.375 C 0.726562 -2.53125 0.894531 -2.65625 1.09375 -2.75 C 1.289062 -2.84375 1.507812 -2.890625 1.75 -2.890625 C 2.007812 -2.890625 2.234375 -2.84375 2.421875 -2.75 C 2.617188 -2.65625 2.78125 -2.53125 2.90625 -2.375 C 3.039062 -2.226562 3.140625 -2.066406 3.203125 -1.890625 C 3.273438 -1.710938 3.3125 -1.539062 3.3125 -1.375 C 3.3125 -1.09375 3.253906 -0.835938 3.140625 -0.609375 C 3.023438 -0.390625 2.847656 -0.210938 2.609375 -0.078125 C 2.378906 0.0546875 2.09375 0.125 1.75 0.125 C 1.53125 0.125 1.320312 0.0820312 1.125 0 C 0.9375 -0.0820312 0.773438 -0.195312 0.640625 -0.34375 C 0.503906 -0.488281 0.394531 -0.648438 0.3125 -0.828125 C 0.238281 -1.003906 0.203125 -1.1875 0.203125 -1.375 Z M 0.59375 -1.375 C 0.59375 -1.238281 0.617188 -1.101562 0.671875 -0.96875 C 0.734375 -0.832031 0.816406 -0.707031 0.921875 -0.59375 C 1.023438 -0.488281 1.144531 -0.40625 1.28125 -0.34375 C 1.425781 -0.28125 1.582031 -0.25 1.75 -0.25 C 2.007812 -0.25 2.222656 -0.300781 2.390625 -0.40625 C 2.566406 -0.507812 2.695312 -0.644531 2.78125 -0.8125 C 2.875 -0.976562 2.921875 -1.164062 2.921875 -1.375 C 2.921875 -1.5 2.894531 -1.625 2.84375 -1.75 C 2.789062 -1.882812 2.710938 -2.007812 2.609375 -2.125 C 2.515625 -2.238281 2.394531 -2.332031 2.25 -2.40625 C 2.101562 -2.476562 1.9375 -2.515625 1.75 -2.515625 C 1.570312 -2.515625 1.410156 -2.476562 1.265625 -2.40625 C 1.117188 -2.332031 0.992188 -2.238281 0.890625 -2.125 C 0.796875 -2.007812 0.722656 -1.882812 0.671875 -1.75 C 0.617188 -1.625 0.59375 -1.5 0.59375 -1.375 Z M 1.046875 -2.125 L 1.796875 -2.125 C 1.960938 -2.125 2.085938 -2.101562 2.171875 -2.0625 C 2.265625 -2.019531 2.328125 -1.960938 2.359375 -1.890625 C 2.390625 -1.828125 2.40625 -1.753906 2.40625 -1.671875 C 2.40625 -1.578125 2.375 -1.503906 2.3125 -1.453125 C 2.25 -1.398438 2.171875 -1.363281 2.078125 -1.34375 C 2.160156 -1.320312 2.226562 -1.28125 2.28125 -1.21875 C 2.34375 -1.164062 2.375 -1.097656 2.375 -1.015625 C 2.375 -0.910156 2.394531 -0.859375 2.4375 -0.859375 C 2.46875 -0.859375 2.484375 -0.882812 2.484375 -0.9375 L 2.484375 -1.015625 L 2.640625 -1.015625 L 2.640625 -0.890625 C 2.640625 -0.796875 2.613281 -0.710938 2.5625 -0.640625 C 2.519531 -0.566406 2.4375 -0.53125 2.3125 -0.53125 C 2.164062 -0.53125 2.054688 -0.566406 1.984375 -0.640625 C 1.921875 -0.710938 1.890625 -0.8125 1.890625 -0.9375 C 1.890625 -1.039062 1.875 -1.109375 1.84375 -1.140625 C 1.8125 -1.179688 1.742188 -1.203125 1.640625 -1.203125 L 1.640625 -0.84375 L 1.78125 -0.84375 L 1.78125 -0.5625 L 1.046875 -0.5625 L 1.046875 -0.84375 L 1.1875 -0.84375 L 1.1875 -1.828125 L 1.046875 -1.828125 Z M 1.640625 -1.828125 L 1.640625 -1.453125 L 1.75 -1.453125 C 1.894531 -1.453125 1.96875 -1.515625 1.96875 -1.640625 C 1.96875 -1.765625 1.894531 -1.828125 1.75 -1.828125 Z M 1.640625 -1.828125 "/></g></g><g clip-rule="nonzero" clip-path="url(#468330eb77)"><g clip-rule="nonzero" clip-path="url(#54b5cf96f0)"><g clip-rule="nonzero" clip-path="url(#a9837150d4)"><path style=" stroke:none;fill-rule:nonzero;fill:#ff3131;fill-opacity:1;" d="M 68.246094 13.496094 C 68.238281 13.363281 68.226562 13.230469 68.226562 13.097656 C 68.230469 12.773438 68.308594 12.46875 68.492188 12.191406 C 68.683594 11.902344 68.953125 11.710938 69.265625 11.578125 C 69.492188 11.484375 69.726562 11.433594 69.964844 11.390625 C 70.347656 11.320312 70.714844 11.203125 71.054688 11.011719 C 71.328125 10.855469 71.566406 10.664062 71.742188 10.398438 C 71.777344 10.347656 71.804688 10.292969 71.84375 10.234375 C 71.84375 10.296875 71.84375 10.355469 71.84375 10.417969 C 71.847656 10.75 71.820312 11.082031 71.734375 11.40625 C 71.582031 11.972656 71.222656 12.34375 70.671875 12.53125 C 70.371094 12.632812 70.066406 12.691406 69.757812 12.757812 C 69.476562 12.820312 69.195312 12.886719 68.929688 13.007812 C 68.683594 13.121094 68.460938 13.273438 68.285156 13.480469 C 68.28125 13.488281 68.273438 13.492188 68.269531 13.5 C 68.261719 13.496094 68.253906 13.496094 68.246094 13.496094 Z M 68.246094 13.496094 "/></g></g></g><g clip-rule="nonzero" clip-path="url(#b5b0913d10)"><g clip-rule="nonzero" clip-path="url(#96ed2334b5)"><g clip-rule="nonzero" clip-path="url(#9469ef0b38)"><path style=" stroke:none;fill-rule:nonzero;fill:#ff3131;fill-opacity:1;" d="M 71.804688 8.691406 C 71.800781 8.890625 71.796875 9.085938 71.785156 9.285156 C 71.765625 9.582031 71.765625 9.867188 71.644531 10.140625 C 71.492188 10.484375 71.1875 10.734375 70.847656 10.898438 C 70.574219 11.027344 70.28125 11.09375 69.988281 11.160156 C 69.699219 11.226562 69.410156 11.289062 69.136719 11.398438 C 68.804688 11.53125 68.535156 11.734375 68.34375 12.039062 C 68.339844 12.046875 68.332031 12.050781 68.324219 12.066406 C 68.320312 12.046875 68.3125 12.039062 68.3125 12.027344 C 68.25 11.652344 68.265625 11.285156 68.394531 10.929688 C 68.535156 10.546875 68.792969 10.257812 69.167969 10.082031 C 69.417969 9.964844 69.679688 9.894531 69.949219 9.84375 C 70.347656 9.769531 70.726562 9.640625 71.078125 9.429688 C 71.339844 9.273438 71.566406 9.074219 71.726562 8.8125 C 71.75 8.773438 71.769531 8.730469 71.789062 8.691406 C 71.792969 8.691406 71.800781 8.691406 71.804688 8.691406 Z M 71.804688 8.691406 "/></g></g></g><g clip-rule="nonzero" clip-path="url(#a88849c9b9)"><g clip-rule="nonzero" clip-path="url(#06cdbd3cf9)"><g clip-rule="nonzero" clip-path="url(#2b18ca2eca)"><path style=" stroke:none;fill-rule:nonzero;fill:#ff3131;fill-opacity:1;" d="M 66.726562 18.207031 C 66.695312 18.066406 66.660156 17.929688 66.640625 17.789062 C 66.59375 17.445312 66.632812 17.109375 66.78125 16.792969 C 66.9375 16.460938 67.191406 16.214844 67.503906 16.027344 C 67.726562 15.894531 67.964844 15.804688 68.210938 15.722656 C 68.601562 15.585938 68.972656 15.410156 69.300781 15.152344 C 69.566406 14.949219 69.785156 14.707031 69.929688 14.402344 C 69.957031 14.34375 69.980469 14.28125 70.007812 14.214844 C 70.019531 14.277344 70.03125 14.34375 70.042969 14.40625 C 70.09375 14.757812 70.121094 15.109375 70.078125 15.464844 C 70.003906 16.085938 69.683594 16.53125 69.128906 16.816406 C 68.832031 16.96875 68.515625 17.074219 68.203125 17.195312 C 67.914062 17.300781 67.628906 17.417969 67.371094 17.585938 C 67.125 17.742188 66.917969 17.9375 66.765625 18.183594 C 66.757812 18.191406 66.753906 18.199219 66.746094 18.203125 C 66.738281 18.203125 66.730469 18.207031 66.726562 18.207031 Z M 66.726562 18.207031 "/></g></g></g><g clip-rule="nonzero" clip-path="url(#77485c9ee7)"><g clip-rule="nonzero" clip-path="url(#5511762c66)"><g clip-rule="nonzero" clip-path="url(#dc461c5f41)"><path style=" stroke:none;fill-rule:nonzero;fill:#ff3131;fill-opacity:1;" d="M 69.734375 12.59375 C 69.757812 12.800781 69.785156 13.011719 69.804688 13.222656 C 69.828125 13.535156 69.871094 13.839844 69.789062 14.144531 C 69.679688 14.53125 69.398438 14.84375 69.0625 15.066406 C 68.796875 15.246094 68.496094 15.359375 68.199219 15.476562 C 67.90625 15.589844 67.609375 15.699219 67.335938 15.859375 C 67.011719 16.046875 66.753906 16.304688 66.601562 16.65625 C 66.597656 16.664062 66.59375 16.671875 66.585938 16.6875 C 66.578125 16.667969 66.570312 16.660156 66.566406 16.644531 C 66.441406 16.261719 66.402344 15.871094 66.484375 15.480469 C 66.574219 15.050781 66.800781 14.707031 67.167969 14.464844 C 67.414062 14.300781 67.679688 14.191406 67.953125 14.09375 C 68.363281 13.953125 68.742188 13.761719 69.082031 13.484375 C 69.332031 13.277344 69.539062 13.035156 69.667969 12.730469 C 69.6875 12.6875 69.699219 12.640625 69.714844 12.59375 C 69.722656 12.59375 69.726562 12.59375 69.734375 12.59375 Z M 69.734375 12.59375 "/></g></g></g><g clip-rule="nonzero" clip-path="url(#d9d95ef158)"><g clip-rule="nonzero" clip-path="url(#618b706b62)"><g clip-rule="nonzero" clip-path="url(#b70cf44d32)"><path style=" stroke:none;fill-rule:nonzero;fill:#ff3131;fill-opacity:1;" d="M 65.847656 22.363281 C 65.820312 22.234375 65.785156 22.105469 65.765625 21.972656 C 65.71875 21.652344 65.75 21.335938 65.886719 21.035156 C 66.03125 20.722656 66.269531 20.488281 66.558594 20.308594 C 66.765625 20.183594 66.992188 20.097656 67.21875 20.015625 C 67.585938 19.886719 67.933594 19.714844 68.238281 19.472656 C 68.484375 19.277344 68.691406 19.046875 68.824219 18.757812 C 68.847656 18.703125 68.871094 18.644531 68.894531 18.582031 C 68.90625 18.640625 68.917969 18.703125 68.925781 18.761719 C 68.980469 19.089844 69.007812 19.421875 68.972656 19.757812 C 68.90625 20.339844 68.613281 20.761719 68.09375 21.035156 C 67.816406 21.179688 67.519531 21.285156 67.226562 21.398438 C 66.957031 21.503906 66.691406 21.613281 66.449219 21.773438 C 66.21875 21.921875 66.027344 22.109375 65.886719 22.34375 C 65.882812 22.347656 65.875 22.355469 65.871094 22.363281 C 65.863281 22.363281 65.855469 22.363281 65.847656 22.363281 Z M 65.847656 22.363281 "/></g></g></g><g clip-rule="nonzero" clip-path="url(#41d53c591e)"><g clip-rule="nonzero" clip-path="url(#15357eb1c3)"><g clip-rule="nonzero" clip-path="url(#78ddc665cf)"><path style=" stroke:none;fill-rule:nonzero;fill:#ff3131;fill-opacity:1;" d="M 68.621094 17.0625 C 68.644531 17.257812 68.675781 17.453125 68.691406 17.652344 C 68.71875 17.945312 68.761719 18.230469 68.6875 18.519531 C 68.589844 18.882812 68.328125 19.179688 68.015625 19.390625 C 67.765625 19.5625 67.484375 19.671875 67.207031 19.785156 C 66.933594 19.894531 66.65625 20 66.402344 20.152344 C 66.09375 20.332031 65.859375 20.578125 65.714844 20.90625 C 65.714844 20.914062 65.710938 20.921875 65.703125 20.9375 C 65.695312 20.921875 65.6875 20.910156 65.683594 20.898438 C 65.566406 20.542969 65.523438 20.175781 65.597656 19.804688 C 65.675781 19.402344 65.886719 19.074219 66.230469 18.84375 C 66.457031 18.6875 66.707031 18.582031 66.964844 18.488281 C 67.34375 18.351562 67.703125 18.167969 68.015625 17.90625 C 68.25 17.707031 68.441406 17.480469 68.558594 17.191406 C 68.578125 17.152344 68.589844 17.105469 68.605469 17.0625 C 68.609375 17.0625 68.613281 17.0625 68.621094 17.0625 Z M 68.621094 17.0625 "/></g></g></g><g clip-rule="nonzero" clip-path="url(#753586df0a)"><g clip-rule="nonzero" clip-path="url(#86c6758bf8)"><g clip-rule="nonzero" clip-path="url(#9d354fd29d)"><path style=" stroke:none;fill-rule:nonzero;fill:#ff3131;fill-opacity:1;" d="M 75.339844 17 C 75.4375 17.09375 75.535156 17.183594 75.621094 17.28125 C 75.835938 17.527344 75.980469 17.808594 76.03125 18.136719 C 76.078125 18.476562 76.007812 18.800781 75.863281 19.109375 C 75.757812 19.328125 75.613281 19.523438 75.46875 19.714844 C 75.230469 20.023438 75.035156 20.355469 74.90625 20.726562 C 74.808594 21.023438 74.757812 21.328125 74.804688 21.640625 C 74.816406 21.703125 74.828125 21.761719 74.839844 21.828125 C 74.796875 21.785156 74.757812 21.738281 74.714844 21.695312 C 74.492188 21.449219 74.289062 21.183594 74.140625 20.882812 C 73.875 20.359375 73.894531 19.84375 74.179688 19.335938 C 74.335938 19.0625 74.527344 18.8125 74.710938 18.558594 C 74.878906 18.324219 75.042969 18.085938 75.160156 17.820312 C 75.269531 17.570312 75.332031 17.3125 75.320312 17.039062 C 75.320312 17.03125 75.324219 17.019531 75.324219 17.011719 C 75.332031 17.007812 75.335938 17.003906 75.339844 17 Z M 75.339844 17 "/></g></g></g><g clip-rule="nonzero" clip-path="url(#a3aed8ec0b)"><g clip-rule="nonzero" clip-path="url(#dac4f04130)"><g clip-rule="nonzero" clip-path="url(#90ad37b2cb)"><path style=" stroke:none;fill-rule:nonzero;fill:#ff3131;fill-opacity:1;" d="M 75.898438 22.953125 C 75.769531 22.800781 75.640625 22.65625 75.515625 22.5 C 75.335938 22.265625 75.144531 22.050781 75.050781 21.765625 C 74.933594 21.410156 74.996094 21.019531 75.140625 20.671875 C 75.257812 20.394531 75.429688 20.148438 75.605469 19.902344 C 75.773438 19.660156 75.949219 19.421875 76.078125 19.15625 C 76.238281 18.835938 76.304688 18.503906 76.242188 18.148438 C 76.242188 18.140625 76.242188 18.132812 76.238281 18.117188 C 76.253906 18.128906 76.265625 18.132812 76.273438 18.140625 C 76.570312 18.375 76.804688 18.660156 76.945312 19.011719 C 77.097656 19.390625 77.097656 19.777344 76.9375 20.160156 C 76.828125 20.414062 76.675781 20.636719 76.511719 20.855469 C 76.265625 21.175781 76.066406 21.527344 75.945312 21.917969 C 75.859375 22.210938 75.820312 22.507812 75.878906 22.8125 C 75.886719 22.855469 75.898438 22.898438 75.910156 22.945312 C 75.90625 22.949219 75.902344 22.953125 75.898438 22.953125 Z M 75.898438 22.953125 "/></g></g></g><g clip-rule="nonzero" clip-path="url(#691611f0dd)"><g clip-rule="nonzero" clip-path="url(#52e1ded8e0)"><g clip-rule="nonzero" clip-path="url(#5e2b8145a5)"><path style=" stroke:none;fill-rule:nonzero;fill:#ff3131;fill-opacity:1;" d="M 74.148438 12.46875 C 74.261719 12.554688 74.378906 12.632812 74.488281 12.722656 C 74.753906 12.949219 74.949219 13.222656 75.046875 13.558594 C 75.152344 13.914062 75.128906 14.261719 75.019531 14.613281 C 74.945312 14.859375 74.824219 15.085938 74.699219 15.3125 C 74.496094 15.671875 74.339844 16.054688 74.265625 16.464844 C 74.207031 16.792969 74.203125 17.121094 74.300781 17.441406 C 74.320312 17.503906 74.34375 17.566406 74.367188 17.636719 C 74.3125 17.59375 74.261719 17.554688 74.214844 17.511719 C 73.941406 17.289062 73.6875 17.042969 73.480469 16.75 C 73.121094 16.238281 73.0625 15.691406 73.285156 15.109375 C 73.40625 14.796875 73.566406 14.507812 73.722656 14.210938 C 73.863281 13.9375 74 13.660156 74.082031 13.363281 C 74.160156 13.082031 74.183594 12.800781 74.132812 12.511719 C 74.132812 12.503906 74.132812 12.496094 74.132812 12.488281 C 74.136719 12.480469 74.144531 12.476562 74.148438 12.46875 Z M 74.148438 12.46875 "/></g></g></g><g clip-rule="nonzero" clip-path="url(#1605257081)"><g clip-rule="nonzero" clip-path="url(#7e28f8d2f6)"><g clip-rule="nonzero" clip-path="url(#5d87938817)"><path style=" stroke:none;fill-rule:nonzero;fill:#ff3131;fill-opacity:1;" d="M 75.652344 18.65625 C 75.496094 18.519531 75.335938 18.382812 75.179688 18.238281 C 74.953125 18.019531 74.71875 17.824219 74.578125 17.539062 C 74.398438 17.179688 74.402344 16.757812 74.5 16.371094 C 74.582031 16.058594 74.726562 15.773438 74.871094 15.488281 C 75.015625 15.207031 75.160156 14.929688 75.257812 14.628906 C 75.375 14.265625 75.394531 13.90625 75.273438 13.542969 C 75.273438 13.535156 75.269531 13.523438 75.265625 13.507812 C 75.28125 13.515625 75.296875 13.519531 75.308594 13.527344 C 75.652344 13.726562 75.945312 13.992188 76.148438 14.339844 C 76.367188 14.71875 76.425781 15.125 76.316406 15.554688 C 76.242188 15.835938 76.117188 16.097656 75.976562 16.351562 C 75.765625 16.730469 75.609375 17.128906 75.542969 17.558594 C 75.496094 17.878906 75.5 18.199219 75.609375 18.511719 C 75.625 18.554688 75.644531 18.601562 75.664062 18.644531 C 75.660156 18.648438 75.65625 18.65625 75.652344 18.65625 Z M 75.652344 18.65625 "/></g></g></g><g clip-rule="nonzero" clip-path="url(#9a19e470d6)"><g clip-rule="nonzero" clip-path="url(#abd8179f11)"><g clip-rule="nonzero" clip-path="url(#c7bd70e291)"><path style=" stroke:none;fill-rule:nonzero;fill:#ff3131;fill-opacity:1;" d="M 72.027344 8.789062 C 72.136719 8.867188 72.246094 8.9375 72.347656 9.023438 C 72.601562 9.230469 72.785156 9.488281 72.882812 9.800781 C 72.988281 10.132812 72.964844 10.460938 72.871094 10.792969 C 72.800781 11.023438 72.691406 11.238281 72.574219 11.453125 C 72.386719 11.792969 72.242188 12.152344 72.175781 12.539062 C 72.125 12.847656 72.125 13.15625 72.21875 13.457031 C 72.238281 13.515625 72.261719 13.574219 72.28125 13.636719 C 72.234375 13.601562 72.1875 13.5625 72.136719 13.523438 C 71.878906 13.316406 71.636719 13.085938 71.441406 12.8125 C 71.101562 12.335938 71.039062 11.824219 71.242188 11.277344 C 71.351562 10.980469 71.503906 10.707031 71.644531 10.425781 C 71.777344 10.167969 71.902344 9.90625 71.976562 9.628906 C 72.046875 9.363281 72.066406 9.097656 72.015625 8.828125 C 72.011719 8.820312 72.011719 8.8125 72.011719 8.804688 C 72.019531 8.796875 72.023438 8.792969 72.027344 8.789062 Z M 72.027344 8.789062 "/></g></g></g><g clip-rule="nonzero" clip-path="url(#6b3b59eba2)"><g clip-rule="nonzero" clip-path="url(#429f24bd45)"><g clip-rule="nonzero" clip-path="url(#3c6d9d66fa)"><path style=" stroke:none;fill-rule:nonzero;fill:#ff3131;fill-opacity:1;" d="M 73.503906 14.585938 C 73.351562 14.457031 73.199219 14.332031 73.054688 14.195312 C 72.835938 13.992188 72.613281 13.808594 72.480469 13.542969 C 72.308594 13.207031 72.308594 12.8125 72.398438 12.449219 C 72.46875 12.152344 72.605469 11.882812 72.738281 11.613281 C 72.871094 11.351562 73.003906 11.085938 73.09375 10.804688 C 73.199219 10.464844 73.210938 10.125 73.097656 9.785156 C 73.09375 9.777344 73.09375 9.769531 73.089844 9.753906 C 73.105469 9.757812 73.117188 9.761719 73.128906 9.769531 C 73.457031 9.957031 73.730469 10.199219 73.925781 10.527344 C 74.132812 10.878906 74.195312 11.261719 74.09375 11.664062 C 74.027344 11.929688 73.914062 12.175781 73.78125 12.417969 C 73.589844 12.773438 73.445312 13.148438 73.390625 13.554688 C 73.347656 13.855469 73.355469 14.15625 73.460938 14.449219 C 73.476562 14.492188 73.496094 14.53125 73.511719 14.574219 C 73.511719 14.578125 73.507812 14.582031 73.503906 14.585938 Z M 73.503906 14.585938 "/></g></g></g><g clip-rule="nonzero" clip-path="url(#8432f662b8)"><g clip-rule="nonzero" clip-path="url(#81f7da4adf)"><g clip-rule="nonzero" clip-path="url(#67f2e2aa8f)"><path style=" stroke:none;fill-rule:nonzero;fill:#ff5757;fill-opacity:1;" d="M 69.246094 17.105469 C 69.316406 17.007812 69.378906 16.90625 69.453125 16.816406 C 69.640625 16.589844 69.867188 16.425781 70.148438 16.335938 C 70.441406 16.242188 70.734375 16.261719 71.027344 16.34375 C 71.234375 16.40625 71.425781 16.503906 71.617188 16.605469 C 71.921875 16.769531 72.242188 16.894531 72.585938 16.953125 C 72.863281 17 73.136719 17 73.40625 16.914062 C 73.457031 16.894531 73.507812 16.875 73.566406 16.855469 C 73.53125 16.898438 73.5 16.941406 73.464844 16.984375 C 73.28125 17.214844 73.078125 17.429688 72.835938 17.605469 C 72.410156 17.914062 71.957031 17.972656 71.46875 17.792969 C 71.203125 17.695312 70.957031 17.5625 70.707031 17.4375 C 70.476562 17.320312 70.246094 17.210938 69.996094 17.148438 C 69.757812 17.085938 69.523438 17.070312 69.28125 17.113281 C 69.273438 17.117188 69.265625 17.117188 69.261719 17.117188 C 69.253906 17.113281 69.25 17.105469 69.246094 17.105469 Z M 69.246094 17.105469 "/></g></g></g><g clip-rule="nonzero" clip-path="url(#2fb825df05)"><g clip-rule="nonzero" clip-path="url(#a3cbfea16b)"><g clip-rule="nonzero" clip-path="url(#e28646d569)"><path style=" stroke:none;fill-rule:nonzero;fill:#ff5757;fill-opacity:1;" d="M 74.40625 15.765625 C 74.289062 15.898438 74.179688 16.035156 74.058594 16.164062 C 73.878906 16.359375 73.71875 16.558594 73.480469 16.679688 C 73.183594 16.832031 72.832031 16.835938 72.503906 16.757812 C 72.242188 16.695312 72.003906 16.574219 71.761719 16.457031 C 71.527344 16.34375 71.289062 16.222656 71.039062 16.144531 C 70.734375 16.054688 70.433594 16.042969 70.128906 16.144531 C 70.121094 16.148438 70.113281 16.148438 70.101562 16.152344 C 70.109375 16.140625 70.109375 16.128906 70.117188 16.121094 C 70.28125 15.828125 70.496094 15.578125 70.785156 15.40625 C 71.097656 15.21875 71.4375 15.164062 71.796875 15.25 C 72.035156 15.308594 72.257812 15.410156 72.472656 15.523438 C 72.789062 15.695312 73.125 15.820312 73.488281 15.871094 C 73.757812 15.90625 74.023438 15.898438 74.28125 15.804688 C 74.320312 15.789062 74.355469 15.769531 74.394531 15.753906 C 74.398438 15.757812 74.402344 15.761719 74.40625 15.765625 Z M 74.40625 15.765625 "/></g></g></g></g></svg>