<svg xmlns="http://www.w3.org/2000/svg" xmlns:xlink="http://www.w3.org/1999/xlink" width="298" zoomAndPan="magnify" viewBox="0 0 223.5 38.999999" height="52" preserveAspectRatio="xMidYMid meet" version="1.2"><defs><clipPath id="0891610204"><path d="M 104.519531 15 L 120 15 L 120 29.65625 L 104.519531 29.65625 Z M 104.519531 15 "/></clipPath><clipPath id="54a86ef6bb"><path d="M 107 13.195312 L 117 13.195312 L 117 27 L 107 27 Z M 107 13.195312 "/></clipPath></defs><g id="aeb319475e"><g style="fill:#ff5757;fill-opacity:1;"><g transform="translate(54.528949, 27.771192)"><path style="stroke:none" d="M 1.46875 0 L 1.46875 -5.359375 L 0.21875 -5.359375 L 0.21875 -6.96875 L 1.46875 -6.96875 L 1.46875 -8.515625 L 0.21875 -8.515625 L 0.21875 -10.125 L 1.46875 -10.125 L 1.46875 -15.484375 L 4.875 -15.484375 L 6.578125 -10.125 L 8.546875 -10.125 L 8.546875 -15.484375 L 10.953125 -15.484375 L 10.953125 -10.125 L 12.1875 -10.125 L 12.1875 -8.515625 L 10.953125 -8.515625 L 10.953125 -6.96875 L 12.1875 -6.96875 L 12.1875 -5.359375 L 10.953125 -5.359375 L 10.953125 0 L 7.53125 0 L 5.796875 -5.359375 L 3.875 -5.359375 L 3.875 0 Z M 3.796875 -10.125 L 4.40625 -10.125 L 3.78125 -12.203125 L 3.6875 -12.203125 Z M 3.875 -6.96875 L 5.3125 -6.96875 L 4.84375 -8.515625 L 3.84375 -8.515625 Z M 7.59375 -6.96875 L 8.59375 -6.96875 L 8.546875 -8.515625 L 7.09375 -8.515625 Z M 8.609375 -3.390625 L 8.71875 -3.390625 L 8.625 -5.359375 L 8.046875 -5.359375 Z M 8.609375 -3.390625 "/></g></g><g style="fill:#ff5757;fill-opacity:1;"><g transform="translate(66.925413, 27.771192)"><path style="stroke:none" d="M 7.984375 -15.390625 L 13.25 -1.828125 C 13.457031 -1.304688 13.6875 -0.945312 13.9375 -0.75 C 14.1875 -0.550781 14.414062 -0.445312 14.625 -0.4375 L 14.625 0 C 14.1875 -0.03125 13.671875 -0.046875 13.078125 -0.046875 C 12.492188 -0.0546875 11.910156 -0.0625 11.328125 -0.0625 C 10.660156 -0.0625 10.03125 -0.0546875 9.4375 -0.046875 C 8.84375 -0.046875 8.375 -0.03125 8.03125 0 L 8.03125 -0.4375 C 8.757812 -0.46875 9.222656 -0.59375 9.421875 -0.8125 C 9.617188 -1.039062 9.570312 -1.519531 9.28125 -2.25 L 5.59375 -12.34375 L 5.984375 -12.90625 L 2.6875 -4.3125 C 2.375 -3.519531 2.179688 -2.867188 2.109375 -2.359375 C 2.046875 -1.859375 2.082031 -1.46875 2.21875 -1.1875 C 2.351562 -0.914062 2.578125 -0.722656 2.890625 -0.609375 C 3.203125 -0.503906 3.578125 -0.445312 4.015625 -0.4375 L 4.015625 0 C 3.535156 -0.03125 3.078125 -0.046875 2.640625 -0.046875 C 2.210938 -0.0546875 1.773438 -0.0625 1.328125 -0.0625 C 1.003906 -0.0625 0.703125 -0.0546875 0.421875 -0.046875 C 0.140625 -0.046875 -0.109375 -0.03125 -0.328125 0 L -0.328125 -0.4375 C -0.0234375 -0.488281 0.28125 -0.679688 0.59375 -1.015625 C 0.914062 -1.347656 1.234375 -1.914062 1.546875 -2.71875 L 6.484375 -15.390625 C 6.710938 -15.378906 6.960938 -15.375 7.234375 -15.375 C 7.503906 -15.375 7.753906 -15.378906 7.984375 -15.390625 Z M 9.5 -6.25 L 9.5 -5.8125 L 3.03125 -5.8125 L 3.25 -6.25 Z M 9.5 -6.25 "/></g></g><g style="fill:#ff5757;fill-opacity:1;"><g transform="translate(81.380732, 27.771192)"><path style="stroke:none" d="M 7.4375 -15.359375 L 7.4375 -14.921875 C 6.976562 -14.910156 6.628906 -14.859375 6.390625 -14.765625 C 6.148438 -14.671875 5.992188 -14.492188 5.921875 -14.234375 C 5.847656 -13.984375 5.8125 -13.59375 5.8125 -13.0625 L 5.8125 -2.296875 C 5.8125 -1.773438 5.847656 -1.382812 5.921875 -1.125 C 6.003906 -0.863281 6.160156 -0.691406 6.390625 -0.609375 C 6.628906 -0.523438 6.976562 -0.46875 7.4375 -0.4375 L 7.4375 0 C 7.050781 -0.03125 6.5625 -0.046875 5.96875 -0.046875 C 5.375 -0.0546875 4.769531 -0.0625 4.15625 -0.0625 C 3.445312 -0.0625 2.789062 -0.0546875 2.1875 -0.046875 C 1.59375 -0.046875 1.109375 -0.03125 0.734375 0 L 0.734375 -0.4375 C 1.203125 -0.46875 1.550781 -0.523438 1.78125 -0.609375 C 2.007812 -0.691406 2.160156 -0.863281 2.234375 -1.125 C 2.316406 -1.382812 2.359375 -1.773438 2.359375 -2.296875 L 2.359375 -13.0625 C 2.359375 -13.59375 2.316406 -13.984375 2.234375 -14.234375 C 2.160156 -14.492188 2.003906 -14.671875 1.765625 -14.765625 C 1.523438 -14.859375 1.179688 -14.910156 0.734375 -14.921875 L 0.734375 -15.359375 C 1.109375 -15.335938 1.59375 -15.320312 2.1875 -15.3125 C 2.789062 -15.300781 3.445312 -15.296875 4.15625 -15.296875 C 4.769531 -15.296875 5.375 -15.300781 5.96875 -15.3125 C 6.5625 -15.320312 7.050781 -15.335938 7.4375 -15.359375 Z M 7.4375 -15.359375 "/></g></g><g style="fill:#ff5757;fill-opacity:1;"><g transform="translate(89.529453, 27.771192)"><path style="stroke:none" d="M 0.734375 -15.359375 C 1.097656 -15.335938 1.585938 -15.320312 2.203125 -15.3125 C 2.816406 -15.300781 3.425781 -15.296875 4.03125 -15.296875 C 4.726562 -15.296875 5.398438 -15.300781 6.046875 -15.3125 C 6.703125 -15.320312 7.164062 -15.328125 7.4375 -15.328125 C 8.78125 -15.328125 9.894531 -15.175781 10.78125 -14.875 C 11.675781 -14.582031 12.34375 -14.15625 12.78125 -13.59375 C 13.226562 -13.03125 13.453125 -12.351562 13.453125 -11.5625 C 13.453125 -11.070312 13.347656 -10.578125 13.140625 -10.078125 C 12.941406 -9.578125 12.597656 -9.113281 12.109375 -8.6875 C 11.628906 -8.257812 10.96875 -7.914062 10.125 -7.65625 C 9.289062 -7.40625 8.238281 -7.28125 6.96875 -7.28125 L 4.875 -7.28125 L 4.875 -7.71875 L 6.75 -7.71875 C 7.601562 -7.71875 8.25 -7.878906 8.6875 -8.203125 C 9.125 -8.535156 9.425781 -8.972656 9.59375 -9.515625 C 9.757812 -10.054688 9.84375 -10.660156 9.84375 -11.328125 C 9.84375 -12.460938 9.640625 -13.34375 9.234375 -13.96875 C 8.828125 -14.601562 8.132812 -14.921875 7.15625 -14.921875 C 6.59375 -14.921875 6.226562 -14.796875 6.0625 -14.546875 C 5.894531 -14.304688 5.8125 -13.8125 5.8125 -13.0625 L 5.8125 -2.296875 C 5.8125 -1.773438 5.847656 -1.382812 5.921875 -1.125 C 6.003906 -0.863281 6.160156 -0.691406 6.390625 -0.609375 C 6.628906 -0.523438 6.976562 -0.46875 7.4375 -0.4375 L 7.4375 0 C 7.050781 -0.03125 6.5625 -0.046875 5.96875 -0.046875 C 5.375 -0.0546875 4.769531 -0.0625 4.15625 -0.0625 C 3.46875 -0.0625 2.816406 -0.0546875 2.203125 -0.046875 C 1.585938 -0.046875 1.097656 -0.03125 0.734375 0 L 0.734375 -0.4375 C 1.203125 -0.46875 1.550781 -0.523438 1.78125 -0.609375 C 2.007812 -0.691406 2.160156 -0.863281 2.234375 -1.125 C 2.316406 -1.382812 2.359375 -1.773438 2.359375 -2.296875 L 2.359375 -13.0625 C 2.359375 -13.59375 2.316406 -13.984375 2.234375 -14.234375 C 2.160156 -14.492188 2.003906 -14.671875 1.765625 -14.765625 C 1.523438 -14.859375 1.179688 -14.910156 0.734375 -14.921875 Z M 4.84375 -7.65625 C 5.457031 -7.644531 5.992188 -7.613281 6.453125 -7.5625 C 6.910156 -7.519531 7.3125 -7.476562 7.65625 -7.4375 C 8 -7.40625 8.3125 -7.382812 8.59375 -7.375 C 9.90625 -7.257812 10.875 -6.976562 11.5 -6.53125 C 12.132812 -6.082031 12.546875 -5.410156 12.734375 -4.515625 L 13.234375 -2.28125 C 13.359375 -1.695312 13.492188 -1.289062 13.640625 -1.0625 C 13.785156 -0.832031 13.992188 -0.71875 14.265625 -0.71875 C 14.453125 -0.726562 14.609375 -0.769531 14.734375 -0.84375 C 14.859375 -0.925781 14.992188 -1.050781 15.140625 -1.21875 L 15.4375 -0.953125 C 15.050781 -0.503906 14.632812 -0.1875 14.1875 0 C 13.738281 0.195312 13.195312 0.296875 12.5625 0.296875 C 11.78125 0.296875 11.132812 0.132812 10.625 -0.1875 C 10.125 -0.519531 9.789062 -1.132812 9.625 -2.03125 L 9.234375 -4.203125 C 9.140625 -4.816406 9.019531 -5.347656 8.875 -5.796875 C 8.726562 -6.253906 8.523438 -6.613281 8.265625 -6.875 C 8.015625 -7.144531 7.664062 -7.28125 7.21875 -7.28125 L 4.875 -7.28125 Z M 4.84375 -7.65625 "/></g></g><g style="fill:#3f5386;fill-opacity:1;"><g transform="translate(104.536705, 27.771192)"><path style="stroke:none" d=""/></g></g><g style="fill:#3f5386;fill-opacity:1;"><g transform="translate(109.586316, 27.771192)"><path style="stroke:none" d=""/></g></g><g style="fill:#3f5386;fill-opacity:1;"><g transform="translate(114.635927, 27.771192)"><path style="stroke:none" d=""/></g></g><g style="fill:#3f5386;fill-opacity:1;"><g transform="translate(119.691308, 27.771192)"><path style="stroke:none" d="M 8.78125 -15.65625 C 9.769531 -15.65625 10.570312 -15.515625 11.1875 -15.234375 C 11.8125 -14.960938 12.367188 -14.632812 12.859375 -14.25 C 13.035156 -14.113281 13.179688 -14.046875 13.296875 -14.046875 C 13.566406 -14.046875 13.75 -14.484375 13.84375 -15.359375 L 14.328125 -15.359375 C 14.304688 -14.796875 14.285156 -14.113281 14.265625 -13.3125 C 14.253906 -12.507812 14.25 -11.441406 14.25 -10.109375 L 13.75 -10.109375 C 13.644531 -10.972656 13.488281 -11.726562 13.28125 -12.375 C 13.070312 -13.019531 12.6875 -13.570312 12.125 -14.03125 C 11.78125 -14.363281 11.347656 -14.625 10.828125 -14.8125 C 10.316406 -15 9.800781 -15.09375 9.28125 -15.09375 C 8.488281 -15.09375 7.804688 -14.882812 7.234375 -14.46875 C 6.671875 -14.0625 6.207031 -13.503906 5.84375 -12.796875 C 5.488281 -12.085938 5.222656 -11.285156 5.046875 -10.390625 C 4.878906 -9.503906 4.796875 -8.585938 4.796875 -7.640625 C 4.796875 -5.035156 5.148438 -3.128906 5.859375 -1.921875 C 6.578125 -0.722656 7.609375 -0.125 8.953125 -0.125 C 9.304688 -0.125 9.613281 -0.164062 9.875 -0.25 C 10.132812 -0.34375 10.34375 -0.445312 10.5 -0.5625 C 10.695312 -0.707031 10.832031 -0.863281 10.90625 -1.03125 C 10.976562 -1.195312 11.015625 -1.414062 11.015625 -1.6875 L 11.015625 -3.8125 C 11.015625 -4.476562 10.957031 -4.972656 10.84375 -5.296875 C 10.738281 -5.628906 10.523438 -5.851562 10.203125 -5.96875 C 9.890625 -6.082031 9.429688 -6.144531 8.828125 -6.15625 L 8.828125 -6.59375 C 9.128906 -6.582031 9.492188 -6.570312 9.921875 -6.5625 C 10.347656 -6.550781 10.789062 -6.539062 11.25 -6.53125 C 11.71875 -6.53125 12.144531 -6.53125 12.53125 -6.53125 C 13.144531 -6.53125 13.703125 -6.535156 14.203125 -6.546875 C 14.710938 -6.566406 15.125 -6.582031 15.4375 -6.59375 L 15.4375 -6.15625 C 15.164062 -6.144531 14.960938 -6.09375 14.828125 -6 C 14.691406 -5.914062 14.597656 -5.742188 14.546875 -5.484375 C 14.492188 -5.222656 14.46875 -4.828125 14.46875 -4.296875 L 14.46875 0 L 14.03125 0 C 14.019531 -0.25 13.96875 -0.515625 13.875 -0.796875 C 13.78125 -1.085938 13.625 -1.234375 13.40625 -1.234375 C 13.300781 -1.234375 13.164062 -1.207031 13 -1.15625 C 12.832031 -1.101562 12.578125 -0.976562 12.234375 -0.78125 C 11.691406 -0.476562 11.125 -0.222656 10.53125 -0.015625 C 9.945312 0.191406 9.328125 0.296875 8.671875 0.296875 C 6.992188 0.296875 5.578125 -0.0078125 4.421875 -0.625 C 3.265625 -1.25 2.394531 -2.140625 1.8125 -3.296875 C 1.226562 -4.460938 0.9375 -5.863281 0.9375 -7.5 C 0.9375 -9.144531 1.269531 -10.578125 1.9375 -11.796875 C 2.613281 -13.015625 3.539062 -13.960938 4.71875 -14.640625 C 5.894531 -15.316406 7.25 -15.65625 8.78125 -15.65625 Z M 8.78125 -15.65625 "/></g></g><g style="fill:#3f5386;fill-opacity:1;"><g transform="translate(135.620335, 27.771192)"><path style="stroke:none" d="M 7.984375 -15.390625 L 13.25 -1.828125 C 13.457031 -1.304688 13.6875 -0.945312 13.9375 -0.75 C 14.1875 -0.550781 14.414062 -0.445312 14.625 -0.4375 L 14.625 0 C 14.1875 -0.03125 13.671875 -0.046875 13.078125 -0.046875 C 12.492188 -0.0546875 11.910156 -0.0625 11.328125 -0.0625 C 10.660156 -0.0625 10.03125 -0.0546875 9.4375 -0.046875 C 8.84375 -0.046875 8.375 -0.03125 8.03125 0 L 8.03125 -0.4375 C 8.757812 -0.46875 9.222656 -0.59375 9.421875 -0.8125 C 9.617188 -1.039062 9.570312 -1.519531 9.28125 -2.25 L 5.59375 -12.34375 L 5.984375 -12.90625 L 2.6875 -4.3125 C 2.375 -3.519531 2.179688 -2.867188 2.109375 -2.359375 C 2.046875 -1.859375 2.082031 -1.46875 2.21875 -1.1875 C 2.351562 -0.914062 2.578125 -0.722656 2.890625 -0.609375 C 3.203125 -0.503906 3.578125 -0.445312 4.015625 -0.4375 L 4.015625 0 C 3.535156 -0.03125 3.078125 -0.046875 2.640625 -0.046875 C 2.210938 -0.0546875 1.773438 -0.0625 1.328125 -0.0625 C 1.003906 -0.0625 0.703125 -0.0546875 0.421875 -0.046875 C 0.140625 -0.046875 -0.109375 -0.03125 -0.328125 0 L -0.328125 -0.4375 C -0.0234375 -0.488281 0.28125 -0.679688 0.59375 -1.015625 C 0.914062 -1.347656 1.234375 -1.914062 1.546875 -2.71875 L 6.484375 -15.390625 C 6.710938 -15.378906 6.960938 -15.375 7.234375 -15.375 C 7.503906 -15.375 7.753906 -15.378906 7.984375 -15.390625 Z M 9.5 -6.25 L 9.5 -5.8125 L 3.03125 -5.8125 L 3.25 -6.25 Z M 9.5 -6.25 "/></g></g><g style="fill:#3f5386;fill-opacity:1;"><g transform="translate(150.075654, 27.771192)"><path style="stroke:none" d="M 6.15625 -15.640625 C 7.007812 -15.640625 7.664062 -15.546875 8.125 -15.359375 C 8.59375 -15.179688 8.992188 -14.992188 9.328125 -14.796875 C 9.492188 -14.691406 9.628906 -14.613281 9.734375 -14.5625 C 9.847656 -14.507812 9.957031 -14.484375 10.0625 -14.484375 C 10.207031 -14.484375 10.3125 -14.5625 10.375 -14.71875 C 10.4375 -14.882812 10.492188 -15.125 10.546875 -15.4375 L 11.03125 -15.4375 C 11.019531 -15.164062 11.003906 -14.835938 10.984375 -14.453125 C 10.960938 -14.066406 10.945312 -13.5625 10.9375 -12.9375 C 10.9375 -12.320312 10.9375 -11.507812 10.9375 -10.5 L 10.4375 -10.5 C 10.375 -11.25 10.195312 -11.976562 9.90625 -12.6875 C 9.625 -13.394531 9.21875 -13.972656 8.6875 -14.421875 C 8.15625 -14.878906 7.507812 -15.109375 6.75 -15.109375 C 6.050781 -15.109375 5.476562 -14.910156 5.03125 -14.515625 C 4.582031 -14.128906 4.359375 -13.59375 4.359375 -12.90625 C 4.359375 -12.320312 4.503906 -11.820312 4.796875 -11.40625 C 5.085938 -11 5.507812 -10.597656 6.0625 -10.203125 C 6.613281 -9.816406 7.289062 -9.351562 8.09375 -8.8125 C 8.78125 -8.363281 9.398438 -7.910156 9.953125 -7.453125 C 10.503906 -7.003906 10.945312 -6.5 11.28125 -5.9375 C 11.613281 -5.375 11.78125 -4.703125 11.78125 -3.921875 C 11.78125 -2.972656 11.53125 -2.1875 11.03125 -1.5625 C 10.53125 -0.9375 9.875 -0.46875 9.0625 -0.15625 C 8.25 0.144531 7.359375 0.296875 6.390625 0.296875 C 5.492188 0.296875 4.78125 0.207031 4.25 0.03125 C 3.71875 -0.132812 3.269531 -0.3125 2.90625 -0.5 C 2.582031 -0.695312 2.335938 -0.796875 2.171875 -0.796875 C 2.023438 -0.796875 1.914062 -0.71875 1.84375 -0.5625 C 1.78125 -0.40625 1.726562 -0.164062 1.6875 0.15625 L 1.1875 0.15625 C 1.21875 -0.195312 1.238281 -0.601562 1.25 -1.0625 C 1.257812 -1.519531 1.265625 -2.117188 1.265625 -2.859375 C 1.273438 -3.609375 1.28125 -4.554688 1.28125 -5.703125 L 1.78125 -5.703125 C 1.832031 -4.742188 1.992188 -3.847656 2.265625 -3.015625 C 2.535156 -2.191406 2.945312 -1.523438 3.5 -1.015625 C 4.0625 -0.515625 4.800781 -0.265625 5.71875 -0.265625 C 6.226562 -0.265625 6.679688 -0.351562 7.078125 -0.53125 C 7.472656 -0.707031 7.796875 -0.976562 8.046875 -1.34375 C 8.296875 -1.707031 8.421875 -2.15625 8.421875 -2.6875 C 8.421875 -3.289062 8.273438 -3.816406 7.984375 -4.265625 C 7.703125 -4.710938 7.316406 -5.128906 6.828125 -5.515625 C 6.347656 -5.910156 5.789062 -6.3125 5.15625 -6.71875 C 4.476562 -7.164062 3.84375 -7.613281 3.25 -8.0625 C 2.65625 -8.507812 2.179688 -9.019531 1.828125 -9.59375 C 1.472656 -10.175781 1.296875 -10.867188 1.296875 -11.671875 C 1.296875 -12.578125 1.523438 -13.320312 1.984375 -13.90625 C 2.441406 -14.5 3.039062 -14.9375 3.78125 -15.21875 C 4.53125 -15.5 5.320312 -15.640625 6.15625 -15.640625 Z M 6.15625 -15.640625 "/></g></g><g style="fill:#000000;fill-opacity:1;"><g transform="translate(162.743056, 27.771192)"><path style="stroke:none" d=""/></g></g><g clip-rule="nonzero" clip-path="url(#0891610204)"><path style=" stroke:none;fill-rule:evenodd;fill:#3f5386;fill-opacity:1;" d="M 115.195312 16.050781 C 115.417969 16.164062 115.632812 16.289062 115.84375 16.425781 L 117.023438 15.824219 L 118.34375 17.144531 L 117.742188 18.324219 C 118.1875 19.003906 118.511719 19.773438 118.683594 20.597656 L 119.941406 21.003906 L 119.941406 22.875 L 118.683594 23.28125 C 118.511719 24.105469 118.1875 24.875 117.742188 25.554688 L 118.34375 26.734375 L 117.683594 27.394531 L 117.023438 28.058594 L 115.84375 27.453125 C 115.160156 27.902344 114.394531 28.226562 113.570312 28.398438 L 113.164062 29.65625 L 111.292969 29.65625 L 110.882812 28.398438 C 110.058594 28.226562 109.292969 27.902344 108.613281 27.453125 L 107.433594 28.058594 L 106.109375 26.734375 L 106.710938 25.554688 C 106.265625 24.875 105.941406 24.105469 105.769531 23.28125 L 104.511719 22.875 L 104.511719 21.003906 L 105.769531 20.597656 C 105.941406 19.773438 106.265625 19.003906 106.710938 18.324219 L 106.109375 17.144531 L 106.769531 16.484375 L 107.433594 15.824219 L 108.613281 16.425781 C 108.820312 16.289062 109.035156 16.164062 109.257812 16.050781 C 109.066406 16.296875 108.871094 16.542969 108.6875 16.789062 C 107.492188 18.375 106.695312 19.886719 106.695312 21.941406 C 106.695312 24.996094 109.171875 27.472656 112.226562 27.472656 C 115.28125 27.472656 117.757812 24.996094 117.757812 21.941406 C 117.757812 19.886719 116.960938 18.375 115.769531 16.789062 C 115.582031 16.542969 115.386719 16.296875 115.195312 16.050781 "/></g><g clip-rule="nonzero" clip-path="url(#54a86ef6bb)"><path style=" stroke:none;fill-rule:evenodd;fill:#00bf63;fill-opacity:1;" d="M 114.582031 25.953125 C 112.25 25.996094 111.152344 25.019531 110.515625 24.164062 C 109.261719 22.476562 110.421875 20.082031 111.773438 18.773438 C 112.253906 18.308594 112.527344 17.765625 112.664062 17.207031 C 113.125 15.304688 112.007812 13.195312 112.007812 13.195312 C 110.933594 16.4375 107.574219 18.039062 107.574219 21.941406 C 107.574219 24.507812 109.65625 26.589844 112.226562 26.589844 C 113.085938 26.589844 113.890625 26.359375 114.582031 25.953125 M 115.03125 21.941406 C 115.03125 24.550781 112.410156 25.105469 110.5 23.226562 C 110.601562 24.984375 115.226562 27.0625 116.632812 23.515625 C 117.929688 20.238281 114.863281 17.398438 113.265625 14.882812 C 113.207031 15.589844 113.160156 17.011719 113.519531 18.308594 C 114.261719 19.28125 114.851562 20.222656 115 21.515625 C 115.019531 21.660156 115.03125 21.796875 115.03125 21.941406 Z M 115.03125 21.941406 "/></g><path style=" stroke:none;fill-rule:evenodd;fill:#00bf63;fill-opacity:1;" d="M 114.042969 20.480469 C 114.042969 20.480469 114.671875 22.023438 113.714844 23.730469 C 114.226562 23.304688 114.554688 22.660156 114.554688 21.9375 C 114.554688 21.386719 114.363281 20.878906 114.042969 20.480469 "/></g></svg>